<svg width="248" height="249" viewBox="0 0 248 249" fill="none" xmlns="http://www.w3.org/2000/svg">
<rect y="101.267" width="46.4" height="46.4" rx="8" fill="#A16207"/>
<rect x="151.199" y="0.467041" width="96.8" height="148" rx="8" fill="#0EA5E9"/>
<rect y="0.467041" width="147.2" height="96.8" rx="8" fill="#FACC15"/>
<path d="M0 159.667C0 155.249 3.58172 151.667 8 151.667H38.4C42.8183 151.667 46.4 155.249 46.4 159.667V190.067C46.4 194.485 42.8183 198.067 38.4 198.067H8C3.58172 198.067 0 194.485 0 190.067V159.667Z" fill="#18181B"/>
<rect x="50.4004" y="151.667" width="46.4" height="46.4" rx="8" fill="#52525B"/>
<rect x="100.801" y="151.667" width="46.4" height="46.4" rx="8" fill="#A1A1AA"/>
<rect x="201.6" y="151.667" width="46.4" height="96.8" rx="8" fill="#7DD3FC"/>
<rect x="50.4004" y="202.067" width="46.4" height="46.4" rx="8" fill="#F97316"/>
<rect y="202.067" width="46.4" height="46.4" rx="8" fill="#34D399"/>
<rect x="151.199" y="151.667" width="46.4" height="96.8" rx="8" fill="#0369A1"/>
<rect x="100.801" y="202.067" width="46.4" height="46.4" rx="8" fill="#DC2626"/>
<rect x="50.4004" y="101.267" width="46.4" height="46.4" rx="8" fill="#FEF08A"/>
<rect x="100.801" y="101.267" width="46.4" height="46.4" rx="8" fill="white"/>
</svg>
