<svg width="28" height="29" viewBox="0 0 28 29" fill="none" xmlns="http://www.w3.org/2000/svg">
<rect y="0.179077" width="28" height="28" rx="12" fill="#3A5BA0"/>
<path d="M10.6665 19.5125H17.3332" stroke="#FCFCFC" stroke-linecap="round" stroke-linejoin="round"/>
<path d="M12.6665 19.5124C16.3332 17.8457 13.1998 15.2457 14.6665 12.8457" stroke="#FCFCFC" stroke-linecap="round" stroke-linejoin="round"/>
<path d="M12.3332 12.4457C13.0665 12.9791 13.5332 13.9124 13.8665 14.9124C12.5332 15.1791 11.5332 15.1791 10.6665 14.7124C9.8665 14.3124 9.13317 13.4457 8.6665 11.9124C10.5332 11.5791 11.5998 11.9124 12.3332 12.4457Z" stroke="#FCFCFC" stroke-linecap="round" stroke-linejoin="round"/>
<path d="M15.3999 10.179C14.8916 10.9734 14.6359 11.9031 14.6665 12.8457C15.9332 12.779 16.8665 12.4457 17.5332 11.9124C18.1999 11.2457 18.5999 10.379 18.6665 8.8457C16.8665 8.91237 15.9999 9.51237 15.3999 10.179Z" stroke="#FCFCFC" stroke-linecap="round" stroke-linejoin="round"/>
</svg>
