<svg width="400" height="117" viewBox="0 0 400 117" fill="none" xmlns="http://www.w3.org/2000/svg">
<circle cx="311.02" cy="8.18567" r="5.02746" fill="#3A5BA0"/>
<path d="M364.137 98.68C356.97 98.68 350.622 96.9876 345.093 93.6029C339.564 90.2182 335.213 85.5515 332.039 79.6026C328.967 73.5512 327.432 66.5767 327.432 58.6791C327.432 50.7815 328.967 43.8582 332.039 37.9094C335.111 31.858 339.36 27.1912 344.786 23.9091C350.212 20.5244 356.509 18.832 363.676 18.832C370.638 18.832 376.73 20.5244 381.952 23.9091C387.276 27.1912 391.423 31.858 394.392 37.9094C397.463 43.8582 398.999 50.7302 398.999 58.5252C398.999 59.4085 398.633 60.2523 397.988 60.8555L397.793 61.038C397.088 61.6971 396.159 62.0638 395.193 62.0638H342.132V53.1405H389.36C389.36 49 387.941 44.3711 385.484 40.371C383.129 36.2683 380.058 33.14 376.27 30.9861C372.481 28.8323 368.283 27.7553 363.676 27.7553C358.659 27.7553 354.103 29.0374 350.008 31.6015C345.912 34.0631 342.636 37.5504 340.179 42.0633C337.824 46.4737 336.646 51.602 336.646 57.4483V59.4483C336.646 65.3972 337.824 70.6793 340.179 75.2948C342.533 79.8078 345.759 83.3463 349.854 85.9105C354.052 88.4746 358.813 89.7567 364.137 89.7567C369.666 89.7567 374.324 88.4746 378.112 85.9105C381.578 83.565 384.4 80.4902 386.58 76.6859C386.958 76.0272 387.649 75.6025 388.409 75.6025C388.708 75.6025 389.003 75.6684 389.274 75.7954L396.081 78.9872C393.317 84.9361 389.17 89.7054 383.641 93.2952C378.215 96.8851 371.713 98.68 364.137 98.68Z" fill="#3A5BA0"/>
<path fill-rule="evenodd" clip-rule="evenodd" d="M191.065 47.9795C191.065 56.3922 188.446 63.1316 183.207 68.1973C177.968 73.263 170.922 75.7959 162.07 75.7959H138.495V97.793H129.553V20.1631H162.07C170.922 20.1631 177.968 22.696 183.207 27.7617C188.446 32.737 191.065 39.4764 191.065 47.9795ZM181.445 47.9795C181.445 42.0996 179.729 37.4857 176.297 34.1387C172.864 30.7918 168.122 29.1182 162.07 29.1182H138.495V66.9756H162.07C168.122 66.9756 172.864 65.3021 176.297 61.9551C179.729 58.5177 181.445 53.8592 181.445 47.9795Z" fill="#3A5BA0"/>
<path d="M129.553 97.793V29.1054C129.553 24.1667 133.556 20.1631 138.495 20.1631V97.793H129.553ZM134.701 75.7957V66.9759H162.07C168.122 66.9759 172.864 65.3024 176.297 61.9554C179.729 58.5179 181.445 53.8593 181.445 47.9794H191.065C191.065 56.3921 188.446 63.1314 183.207 68.1971C177.968 73.2628 170.922 75.7957 162.07 75.7957H134.701Z" fill="#3A5BA0"/>
<path d="M306.141 20.1631H315.9V97.4973H306.141V20.1631Z" fill="#3A5BA0"/>
<path d="M255.366 97.0537C232.845 97.0537 223.926 81.8759 223.926 62.1223V20.2747H233.737V59.4439C233.737 80.425 242.545 88.1256 256.147 88.1256C276.438 88.1256 283.685 70.9389 283.796 54.8682L284.131 20.1631H293.719V97.4861H284.577V77.3002H284.242C283.685 82.2107 277.664 97.0537 255.366 97.0537Z" fill="#3A5BA0"/>
<path d="M212.639 97.3494C210.045 97.3494 207.94 96.8376 206.323 95.8138C204.736 94.76 203.577 93.39 202.845 91.7038C202.112 89.9876 201.746 88.1057 201.746 86.0582V20.1631H211.449V81.6321C211.449 83.9204 211.586 85.6216 211.861 86.7357C212.135 87.8196 212.669 88.5423 213.463 88.9036C214.287 89.2649 222.507 89.4456 224.124 89.4456L224.124 97.3494H212.639Z" fill="#3A5BA0"/>
<path fill-rule="evenodd" clip-rule="evenodd" d="M52.9785 57.9982V116.152C79.3836 116.152 100.837 94.7463 100.837 68.3412V31.3467C100.837 48.6593 86.8023 62.6939 69.4897 62.6939C63.4308 62.6939 57.7734 60.975 52.9785 57.9982Z" fill="#72E3AD"/>
<path d="M47.8584 86.5283C47.8584 60.1233 26.405 38.7178 0 38.7178V68.3421C0 94.7472 21.4534 116.153 47.8584 116.153V86.5283Z" fill="#72E3AD"/>
<path d="M100.837 31.3473C100.837 48.6599 86.8023 62.6945 69.4897 62.6945C63.4308 62.6945 57.7734 60.9755 52.9785 57.9986V47.8106C52.9785 21.4055 74.4319 0 100.837 0V31.3473Z" fill="#3A5BA0"/>
<path d="M100.837 0C74.4321 0 52.9787 21.4055 52.9787 47.8106V57.9986C44.0728 52.4695 38.1426 42.601 38.1426 31.3473C38.1426 14.0347 52.1772 0 69.4898 0H100.837Z" fill="#84CEFF"/>
</svg>
