<svg width="64" height="74" viewBox="0 0 64 74" fill="none" xmlns="http://www.w3.org/2000/svg">
<path fill-rule="evenodd" clip-rule="evenodd" d="M33.6248 36.9502V73.9994C50.3837 73.9994 63.9999 60.3621 63.9999 43.5397V19.9707C63.9999 31.0004 55.0923 39.9418 44.1042 39.9418C40.2587 39.9418 36.668 38.8467 33.6248 36.9502Z" fill="#72E3AD"/>
<path d="M30.3751 55.1265C30.3751 38.304 16.7589 24.6667 0 24.6667V43.5402C0 60.3627 13.6162 74 30.3751 74V55.1265Z" fill="#72E3AD"/>
<path d="M63.9999 19.9711C63.9999 31.0008 55.0923 39.9422 44.1042 39.9422C40.2587 39.9422 36.668 38.847 33.6248 36.9505V30.4597C33.6248 13.6373 47.2409 0 63.9999 0V19.9711Z" fill="#3A5BA0"/>
<path d="M63.9999 0C47.241 0 33.6248 13.6373 33.6248 30.4597V36.9505C27.9723 33.4279 24.2085 27.1407 24.2085 19.9711C24.2085 8.94137 33.1161 0 44.1042 0H63.9999Z" fill="#84CEFF"/>
</svg>
