<svg width="316" height="202" viewBox="0 0 316 202" fill="none" xmlns="http://www.w3.org/2000/svg">
<rect x="0.450195" y="0.512939" width="102.408" height="98.3048" rx="11.8163" fill="#FCE7F3"/>
<path d="M50.5223 87.7924L14.912 66.7196C13.7742 66.0777 12.8126 65.0345 13.9184 64.3443L49.6569 43.721C50.2018 43.3839 51.0031 43.1753 51.548 43.4963L88.9211 65.211C90.059 65.869 90.2513 67.7147 89.1295 68.3727L55.218 87.7603C53.7596 88.5949 51.9807 88.6109 50.5223 87.7924Z" fill="#F2CBF0"/>
<path d="M71.653 73.2869L49.185 85.865L17.9863 67.4722L36.4614 57.5128" fill="url(#paint0_linear_605_3695)" fill-opacity="0.2"/>
<path d="M75.7548 55.5494C71.3093 51.4247 62.258 48.6062 51.8317 48.6062C41.4055 48.6062 32.3771 51.4247 27.9316 55.5494H24.9756V61.3698C24.9756 68.4275 37.0059 74.1333 51.8317 74.1333C66.6576 74.1333 78.6879 68.4046 78.6879 61.3698V55.5494H75.7548Z" fill="#FFEDD4"/>
<path opacity="0.47" d="M75.7548 55.5494C71.3093 51.4247 62.258 48.6062 51.8317 48.6062C41.4055 48.6062 32.3771 51.4247 27.9316 55.5494H24.9756V61.3698C24.9756 68.4275 37.0059 74.1333 51.8317 74.1333C66.6576 74.1333 78.6879 68.4046 78.6879 61.3698V55.5494H75.7548Z" fill="#1B4075"/>
<path d="M51.8317 68.313C66.664 68.313 78.6879 62.5986 78.6879 55.5494C78.6879 48.5003 66.664 42.7859 51.8317 42.7859C36.9995 42.7859 24.9756 48.5003 24.9756 55.5494C24.9756 62.5986 36.9995 68.313 51.8317 68.313Z" fill="#FFEDD4"/>
<path opacity="0.38" d="M24.9756 10.9342V55.5264C24.9756 62.5842 37.0059 68.29 51.8317 68.29C66.6576 68.29 78.6879 62.5842 78.6879 55.5493V10.9342H24.9756Z" fill="url(#paint1_linear_605_3695)"/>
<path d="M51.8314 66.4797C39.2053 66.4797 28.9395 61.3238 28.9395 54.9994C28.9395 48.6749 39.2053 43.519 51.8314 43.519C64.4574 43.519 74.7232 48.6749 74.7232 54.9994C74.7232 61.3238 64.4574 66.4797 51.8314 66.4797ZM51.8314 43.7711C39.3428 43.7711 29.1915 48.8124 29.1915 54.9994C29.1915 61.1864 39.3428 66.2276 51.8314 66.2276C64.3199 66.2276 74.4712 61.1864 74.4712 54.9994C74.4712 48.8124 64.3199 43.7711 51.8314 43.7711Z" fill="#6D6D9B"/>
<path d="M40.168 62.4237C35.4017 60.751 32.2853 58.047 32.2853 55.0222C32.2853 52.41 34.6226 50.0268 38.3348 48.354L38.1974 48.2166C34.4393 49.9352 32.0791 52.3412 32.0791 55.0222C32.0791 58.1157 35.2413 60.8884 40.0764 62.6071C40.1222 62.5383 40.1451 62.4925 40.168 62.4237Z" fill="#6D6D9B"/>
<path d="M65.489 61.6217C61.9601 63.2487 57.148 64.2569 51.8318 64.2569C51.2131 64.2569 50.6173 64.234 50.0215 64.2111C50.0215 64.2798 50.0215 64.3486 50.0215 64.4173C50.6173 64.4402 51.2131 64.4631 51.8318 64.4631C57.2167 64.4631 62.1205 63.432 65.6952 61.7363L65.489 61.6217Z" fill="#6D6D9B"/>
<path d="M71.3545 55.0222C71.3316 56.0992 70.965 57.1304 70.3234 57.9783L70.5067 58.0699C71.1712 57.1992 71.5378 56.1222 71.5608 55.0222C71.5608 50.5768 65.1217 46.8646 56.4599 45.8563C56.437 45.9251 56.4141 45.9938 56.4141 46.0626C64.9842 47.0479 71.3545 50.6913 71.3545 55.0222Z" fill="#6D6D9B"/>
<path d="M51.8307 61.0947C44.1772 61.0947 37.9443 58.1157 37.9443 54.4494C37.9443 50.783 44.1772 47.8041 51.8307 47.8041C59.4843 47.8041 65.7171 50.783 65.7171 54.4494C65.7171 58.1157 59.4843 61.0947 51.8307 61.0947ZM51.8307 48.102C44.3376 48.102 38.2422 50.9434 38.2422 54.4723C38.2422 58.0012 44.3376 60.8426 51.8307 60.8426C59.3239 60.8426 65.4192 57.9783 65.4192 54.4723C65.4192 50.9663 59.3239 48.0791 51.8307 48.102Z" fill="#6D6D9B"/>
<path d="M70.4157 58.5741C71.0612 58.5741 71.5844 58.2971 71.5844 57.9554C71.5844 57.6137 71.0612 57.3367 70.4157 57.3367C69.7703 57.3367 69.2471 57.6137 69.2471 57.9554C69.2471 58.2971 69.7703 58.5741 70.4157 58.5741Z" fill="#1B4075"/>
<path d="M50.0671 64.8069C50.7125 64.8069 51.2357 64.5299 51.2357 64.1882C51.2357 63.8465 50.7125 63.5695 50.0671 63.5695C49.4217 63.5695 48.8984 63.8465 48.8984 64.1882C48.8984 64.5299 49.4217 64.8069 50.0671 64.8069Z" fill="#1B4075"/>
<path d="M37.945 48.8352C38.5905 48.8352 39.1137 48.5582 39.1137 48.2165C39.1137 47.8748 38.5905 47.5978 37.945 47.5978C37.2996 47.5978 36.7764 47.8748 36.7764 48.2165C36.7764 48.5582 37.2996 48.8352 37.945 48.8352Z" fill="#1B4075"/>
<path d="M40.3737 62.859C40.8546 62.859 41.2445 62.6641 41.2445 62.4237C41.2445 62.1832 40.8546 61.9883 40.3737 61.9883C39.8928 61.9883 39.5029 62.1832 39.5029 62.4237C39.5029 62.6641 39.8928 62.859 40.3737 62.859Z" fill="#1B4075"/>
<path d="M65.5111 62.0572C65.9287 62.0572 66.2673 61.8622 66.2673 61.6218C66.2673 61.3813 65.9287 61.1864 65.5111 61.1864C65.0934 61.1864 64.7549 61.3813 64.7549 61.6218C64.7549 61.8622 65.0934 62.0572 65.5111 62.0572Z" fill="#1B4075"/>
<path d="M51.6474 58.4595C56.5198 58.4595 60.4696 56.6641 60.4696 54.4494C60.4696 52.2347 56.5198 50.4393 51.6474 50.4393C46.775 50.4393 42.8252 52.2347 42.8252 54.4494C42.8252 56.6641 46.775 58.4595 51.6474 58.4595Z" fill="#6D6D9B"/>
<path opacity="0.48" d="M44.2466 50.4623L32.583 57.4513C32.8809 57.5888 33.11 57.8179 33.2246 58.0929C34.462 60.7052 36.9139 62.5384 39.32 64.0279C41.2448 65.2423 43.3988 66.0673 45.6444 66.4568C51.3502 62.5613 58.9579 57.3367 59.9891 56.6951L61.7765 51.5622L44.2466 50.4623Z" fill="url(#paint2_linear_605_3695)"/>
<path d="M62.4863 44.3669C62.4863 44.3669 62.0968 54.1744 61.7989 55.1827C61.501 56.1909 58.4992 59.4907 50.6394 58.0929C42.7796 56.6951 49.9978 34.1011 49.9978 34.1011" fill="#1B4075"/>
<path d="M53.8017 21.1543C53.8017 21.1543 65.9007 21.6126 67.5048 31.2139C69.1088 40.8152 62.9676 47.9417 53.1143 47.7126" fill="#1B4075"/>
<path d="M39.4335 31.1451C39.4335 31.1451 38.6773 34.9261 38.9981 36.9884C39.3189 39.0507 38.1961 42.8775 38.9294 45.7877C39.6626 48.6979 40.7626 55.664 44.2227 55.8702C47.6828 56.0764 56.7113 54.4037 58.7736 50.4394C60.8359 46.4751 66.5188 33.5283 63.0816 27.6392C59.6444 21.7501 54.3281 19.9627 48.0495 21.7042C42.4812 23.2853 39.7543 29.1286 39.4335 31.1451Z" fill="#FFEDD4"/>
<path d="M67.505 31.2139C67.0009 28.3267 65.351 25.7602 62.922 24.1103C61.4326 23.125 59.8056 22.3688 58.087 21.9105C54.4894 22.0938 50.8917 23.1479 47.9357 25.2332C46.3775 26.3102 45.0714 27.6851 44.0861 29.2891C42.8487 31.3285 42.5737 33.345 42.6653 35.6823C42.7341 37.6988 42.7799 39.7841 41.7487 41.5714C41.1988 42.5109 40.3509 43.1755 40.5343 44.3441C40.7176 45.4669 42.4133 45.8336 42.4133 46.8877C42.3904 49.3854 42.5508 53.3496 43.4215 54.9537C44.3152 56.6035 48.5086 55.5265 48.5086 55.5265C50.9147 55.3891 57.1704 53.51 58.7744 50.4395C59.2786 49.4541 60.0118 47.9417 60.768 46.1086C65.9239 43.5421 68.6507 37.9967 67.505 31.2139Z" fill="#FFCBA4"/>
<path opacity="0.78" d="M49.8377 21.2459C49.8377 21.2459 39.4802 24.6373 42.8716 29.9764C46.263 35.3156 63.4032 24.4998 63.4032 24.4998C63.4032 24.4998 58.8432 20.2147 49.8377 21.2459Z" fill="white"/>
<path d="M63.4719 34.5594C63.0823 34.4448 62.6928 34.399 62.2803 34.399C57.4224 34.3761 54.1226 39.0965 54.7872 43.6795C55.1767 46.2918 57.0099 48.6979 59.8743 48.2854C63.9073 47.7125 67.2528 41.6401 66.5195 37.8362C66.2446 36.2322 65.053 34.949 63.4719 34.5594Z" fill="#FFEDD4"/>
<path opacity="0.47" d="M63.4719 34.5594C63.0823 34.4448 62.6928 34.399 62.2803 34.399C57.4224 34.3761 54.1226 39.0965 54.7872 43.6795C55.1767 46.2918 57.0099 48.6979 59.8743 48.2854C63.9073 47.7125 67.2528 41.6401 66.5195 37.8362C66.2446 36.2322 65.053 34.949 63.4719 34.5594Z" fill="#1B4075"/>
<path d="M64.4572 34.926C64.0677 34.8343 63.6781 34.7656 63.2657 34.7656C58.4077 34.7427 55.108 39.4631 55.7725 44.0461C56.1621 46.6584 57.9953 49.0644 60.8596 48.652C64.8926 48.0791 68.2382 42.0067 67.5049 38.2028C67.2299 36.5988 66.0154 35.3155 64.4572 34.926Z" fill="#FFEDD4"/>
<path d="M46.3776 38.3404C45.9193 38.2945 45.4152 38.3404 45.1402 38.7528C45.0257 38.982 44.9569 39.2111 44.9111 39.4632C44.8882 39.5319 44.7736 39.5319 44.7278 39.6007C44.659 39.6923 44.659 40.0361 44.7965 40.0819C44.8423 40.1048 44.9111 40.1048 44.9569 40.0819C45.1632 40.059 45.5527 40.4485 45.736 40.5402C46.1714 40.7464 46.6297 40.8839 47.1109 40.9297C48.5316 41.136 49.8149 40.0361 49.8149 40.0361C48.9441 39.9215 47.8442 38.5237 46.3776 38.3404Z" fill="white"/>
<path d="M49.6992 39.9215C48.7826 39.234 47.7973 38.4779 46.6286 38.2258C45.6662 38.0196 45.1391 38.432 44.7725 39.3028C44.7038 39.4632 44.9558 39.6236 45.0246 39.4403C45.2537 38.9361 45.5516 38.432 46.1703 38.4549C46.2849 38.4549 46.3995 38.4779 46.514 38.5008C46.1016 38.7528 45.8724 39.1882 45.8724 39.6465C45.8266 40.311 46.3307 40.9068 46.9952 40.9526C47.6598 40.9985 48.2556 40.4944 48.3014 39.8298C48.3014 39.7611 48.3014 39.7152 48.3014 39.6465C48.3014 39.509 48.2785 39.3715 48.2326 39.257C48.6909 39.5319 49.1263 39.8527 49.5388 40.1965C49.6992 40.2881 49.8367 40.0361 49.6992 39.9215Z" fill="#1B4075"/>
<path d="M44.7737 34.7656C44.7737 34.7656 44.4529 35.7051 45.0028 35.8884C45.5528 36.0718 47.0193 35.6593 48.1192 36.0489C49.2192 36.4384 51.0982 37.8591 51.2127 37.8133C51.3273 37.7675 50.1128 35.9114 48.8754 35.3843C47.638 34.8573 44.7737 34.7656 44.7737 34.7656Z" fill="#1B4075"/>
<path d="M42.5053 50.4393C42.6198 50.4622 42.7344 50.4622 42.8719 50.4393C43.6052 50.3247 44.1551 49.7747 44.8196 49.4998C45.4154 49.2706 46.057 49.156 46.7216 49.156C46.2862 49.0873 45.4154 48.9498 44.7738 48.8811C43.9031 48.7665 43.9031 48.1478 43.3989 47.827C42.8948 47.5062 42.3907 48.3082 42.3907 48.3082L42.0011 47.827C41.5887 47.3229 40.5804 48.0561 40.5804 48.5832C40.5575 49.4081 41.7262 50.3705 42.5053 50.4393Z" fill="#1B4075"/>
<path d="M38.999 36.9883C38.999 37.0341 40.3052 37.4695 40.4197 37.5153C41.2218 37.882 41.4967 38.2486 41.4738 39.1881C41.4509 40.036 39.4344 38.936 39.0449 38.7298L38.999 36.9883Z" fill="#1B4075"/>
<path d="M61.2952 31.9242L60.7911 30.1826C60.5848 29.4494 60.8827 28.6703 61.5473 28.3036C62.3264 27.8453 63.3575 28.0974 63.8158 28.8994C63.8617 28.9911 63.9075 29.0827 63.9533 29.1744L64.572 30.8472C64.847 31.6263 64.5262 32.4741 63.8158 32.8637L63.7013 32.9095C62.8992 33.3449 61.891 33.047 61.4556 32.245C61.3869 32.1304 61.341 32.0387 61.2952 31.9242Z" fill="white"/>
<path d="M61.4329 34.4907C61.4558 34.4907 61.5016 34.4907 61.5245 34.4907H61.662C61.6162 30.5035 60.5621 27.1121 57.2853 24.4998C55.0167 22.6666 52.244 21.5667 49.3338 21.3605C48.1423 21.5896 47.1111 22.0937 45.9883 22.552C46.1258 22.6666 46.2862 22.6895 46.4695 22.6666C50.1359 21.9563 54.0085 23.1707 56.827 25.5539C59.6913 27.9829 60.5163 31.0764 60.5392 34.6511C60.8142 34.5823 61.1121 34.5136 61.4329 34.4907Z" fill="#1B4075"/>
<rect x="106.797" y="68.6753" width="208.754" height="132.386" rx="11.8163" fill="#FFEDD4"/>
<path d="M208.769 178.759L133.88 136.568C131.51 135.291 129.448 133.196 131.784 131.821L206.949 90.5461C208.082 89.8914 209.8 89.4332 210.934 90.0878L289.568 133.556C291.972 134.866 292.385 138.564 289.98 139.874L218.629 178.694C215.571 180.363 211.827 180.396 208.769 178.759Z" fill="#FE9A00" fill-opacity="0.2"/>
<path d="M209.078 160.527C237.841 160.527 261.157 148.232 261.157 133.065C261.157 117.898 237.841 105.603 209.078 105.603C180.316 105.603 156.999 117.898 156.999 133.065C156.999 148.232 180.316 160.527 209.078 160.527Z" fill="#FFF4E4"/>
<path opacity="0.29" d="M209.078 160.527C237.841 160.527 261.157 148.232 261.157 133.065C261.157 117.898 237.841 105.603 209.078 105.603C180.316 105.603 156.999 117.898 156.999 133.065C156.999 148.232 180.316 160.527 209.078 160.527Z" fill="#631919"/>
<path d="M209.078 157.516C237.841 157.516 261.157 145.221 261.157 130.054C261.157 114.887 237.841 102.591 209.078 102.591C180.316 102.591 156.999 114.887 156.999 130.054C156.999 145.221 180.316 157.516 209.078 157.516Z" fill="#FFF4E4"/>
<path opacity="0.29" d="M209.078 147.435C229.075 147.435 245.286 139.55 245.286 129.825C245.286 120.099 229.075 112.215 209.078 112.215C189.081 112.215 172.87 120.099 172.87 129.825C172.87 139.55 189.081 147.435 209.078 147.435Z" fill="#631919"/>
<path d="M264.01 148.057L276.548 141.183L267.823 137.68L256.898 143.31C259.166 145.045 261.536 146.649 264.01 148.057Z" fill="url(#paint3_linear_605_3695)"/>
<path d="M266.414 129.563C266.414 129.563 265.143 139.874 270.88 141.87C276.617 143.867 279.674 138.663 279.743 129.563" fill="#F5EDC5"/>
<path d="M273.079 133.229C276.759 133.229 279.743 131.588 279.743 129.563C279.743 127.538 276.759 125.897 273.079 125.897C269.398 125.897 266.414 127.538 266.414 129.563C266.414 131.588 269.398 133.229 273.079 133.229Z" fill="#F5EDC5"/>
<path opacity="0.29" d="M273.079 133.229C276.759 133.229 279.743 131.588 279.743 129.563C279.743 127.538 276.759 125.897 273.079 125.897C269.398 125.897 266.414 127.538 266.414 129.563C266.414 131.588 269.398 133.229 273.079 133.229Z" fill="#631919"/>
<path d="M274.796 121.38C274.796 121.38 272.185 117.779 273.318 115.292C273.318 115.292 274.246 113.688 275.586 113.426C275.586 113.426 275.448 116.83 276.788 116.405C278.128 115.979 276.788 112.837 276.788 112.837C276.788 112.837 278.197 111.036 279.708 111.069C281.22 111.102 279.708 114.277 280.773 113.753C281.838 113.23 280.842 110.578 282.044 110.251C283.143 110.022 284.243 109.825 285.376 109.727C285.376 109.727 286.51 112.837 285.376 113.295C284.243 113.753 282.559 113.884 283.384 114.572C284.208 115.259 286.476 114.441 286.476 114.441C286.476 114.441 286.613 116.208 285.857 116.961C285.102 117.714 280.533 116.044 281.357 117.55C282.182 119.056 285.17 118.303 285.17 118.303C285.17 118.303 283.624 120.398 281.838 121.347C280.052 122.296 274.796 121.38 274.796 121.38Z" fill="#8CCC00"/>
<path d="M275.414 130.381C275.414 130.381 273.525 128.614 273.903 127.075C273.903 127.075 274.246 126.061 275.002 125.799C275.002 125.799 275.311 127.763 276.032 127.37C276.754 126.977 275.62 125.341 275.62 125.341C275.62 125.341 276.204 124.162 277.097 124.064C277.991 123.966 277.441 125.864 277.991 125.471C278.54 125.079 277.681 123.638 278.334 123.344C278.918 123.082 279.536 122.886 280.189 122.722C280.189 122.722 281.185 124.391 280.601 124.751C280.017 125.111 279.09 125.373 279.605 125.701C280.12 126.028 281.323 125.341 281.323 125.341C281.323 125.341 281.598 126.322 281.254 126.846C280.911 127.37 278.128 126.846 278.746 127.632C279.365 128.417 280.979 127.664 280.979 127.664C280.601 128.45 280.086 129.137 279.433 129.727C278.471 130.414 275.414 130.381 275.414 130.381Z" fill="#8CCC00"/>
<path d="M268.441 126.552C268.441 126.552 263.837 126.715 262.257 124.457C262.257 124.457 261.364 122.853 261.845 121.642C261.845 121.642 264.799 123.573 265.108 122.296C265.418 121.02 261.948 120.365 261.948 120.365C261.948 120.365 261.089 118.27 261.982 117.059C262.875 115.848 264.799 118.761 264.937 117.648C265.074 116.535 262.154 115.881 262.498 114.735C262.875 113.721 263.322 112.739 263.837 111.789C263.837 111.789 267.204 112.542 266.998 113.721C266.792 114.899 266.036 116.306 267.066 116.012C268.097 115.717 268.612 113.491 268.612 113.491C268.612 113.491 270.227 114.31 270.502 115.357C270.777 116.405 266.826 119.121 268.612 119.285C270.399 119.449 271.326 116.634 271.326 116.634C271.326 116.634 272.357 118.99 272.219 120.954C272.082 122.918 268.441 126.552 268.441 126.552Z" fill="#8CCC00"/>
<path d="M284.416 111.135C283.935 111.527 283.454 111.92 282.939 112.346C282.973 111.855 283.042 111.364 283.145 110.873C283.179 110.611 282.767 110.513 282.732 110.775C282.629 111.429 282.526 112.084 282.492 112.771C281.187 113.851 279.915 114.964 278.747 116.175C278.644 115.324 278.61 114.506 278.679 113.655C278.679 113.393 278.267 113.393 278.232 113.655C278.163 114.637 278.232 115.619 278.37 116.568C277.614 117.354 276.892 118.172 276.24 119.023C275.484 118.041 274.969 116.896 274.763 115.717C274.728 115.455 274.282 115.554 274.35 115.815C274.591 117.092 275.14 118.27 275.965 119.318L275.999 119.35C274.075 121.936 272.77 124.817 272.667 128.155C272.667 128.417 273.079 128.417 273.114 128.155C273.217 124.915 274.488 122.133 276.308 119.645C278.06 120.103 279.881 120.267 281.702 120.136C281.977 120.103 281.977 119.711 281.702 119.711C279.984 119.809 278.267 119.678 276.583 119.252C277.511 118.074 278.507 116.961 279.606 115.914H279.641C280.671 116.012 281.667 116.077 282.698 116.11C283.351 116.143 284.003 116.175 284.587 115.914C284.828 115.783 284.622 115.455 284.381 115.554C283.694 115.881 282.698 115.717 281.942 115.684C281.29 115.652 280.671 115.586 280.019 115.554C281.564 114.081 283.213 112.739 284.828 111.429C284.931 111.233 284.622 110.971 284.416 111.135Z" fill="#631919"/>
<path d="M270.949 119.187C270.983 119.089 270.914 118.958 270.777 118.958C270.674 118.925 270.571 118.99 270.536 119.089C270.055 120.627 269.093 121.969 267.754 122.918C267.273 121.609 266.792 120.3 266.414 118.99C267.479 118.009 268.338 116.83 268.956 115.554C269.093 115.324 268.716 115.095 268.578 115.357C267.994 116.536 267.204 117.583 266.277 118.532C265.83 117.027 265.418 115.455 265.074 113.917C265.005 113.655 264.593 113.753 264.662 114.015C265.109 116.143 265.693 118.238 266.38 120.3C265.555 120.136 264.765 119.907 264.009 119.58C263.769 119.449 263.528 119.809 263.803 119.94C264.662 120.332 265.589 120.627 266.551 120.758C266.998 122.133 267.513 123.475 268.063 124.784C266.757 124.751 265.486 124.489 264.284 123.999C264.044 123.9 263.803 124.26 264.078 124.359C265.383 124.882 266.792 125.177 268.235 125.21C268.922 126.879 269.677 128.483 270.536 130.087C270.674 130.316 271.052 130.119 270.914 129.89C269.781 127.763 268.819 125.57 267.925 123.311C269.368 122.296 270.433 120.856 270.949 119.187Z" fill="#631919"/>
<path d="M278.815 124.522L277.613 126.421C277.476 126.224 277.338 126.028 277.235 125.831C277.098 125.602 276.754 125.799 276.857 126.028C276.995 126.29 277.166 126.552 277.373 126.781L276.101 128.843C275.964 128.712 275.861 128.548 275.827 128.352C275.792 128.09 275.346 128.09 275.38 128.352C275.414 128.679 275.586 128.974 275.861 129.203L274.246 131.789C274.178 131.887 274.246 132.018 274.349 132.083C274.453 132.149 274.556 132.116 274.624 132.018C275.346 130.872 276.067 129.759 276.754 128.614C277.098 128.614 277.476 128.581 277.819 128.45C278.094 128.385 277.957 127.959 277.716 128.057C277.51 128.123 277.269 128.155 277.029 128.188L279.193 124.719C279.228 124.62 279.193 124.489 279.056 124.457C278.953 124.424 278.85 124.457 278.815 124.522Z" fill="#631919"/>
<path d="M184.001 126.846L183.727 130.217L229.931 135.684L244.566 136.862L244.909 132.705" fill="#F6B034"/>
<path d="M184.516 131.461L202.311 143.507C202.311 143.507 202.414 151.199 212.995 152.05C229.175 153.359 246.352 140.266 244.462 135.586C242.161 129.89 233.985 130.087 233.985 130.087L214.85 117.092C213.991 116.503 212.892 116.405 211.93 116.83L184.826 128.483C183.898 128.876 183.52 129.923 183.932 130.807C184.07 131.036 184.242 131.298 184.516 131.461Z" fill="#F68E2B"/>
<path d="M184.825 127.926L202.62 139.972C202.62 139.972 202.723 147.664 213.269 148.515C229.45 149.824 246.626 136.731 244.737 132.051C242.435 126.355 234.259 126.552 234.259 126.552L215.124 113.557C214.266 112.968 213.166 112.869 212.204 113.295L185.134 124.882C184.207 125.275 183.794 126.322 184.207 127.206C184.344 127.501 184.55 127.73 184.825 127.926Z" fill="#FBE8AE"/>
<path d="M179.26 126.781V130.152L225.808 131.854H240.477V127.664" fill="#F6B034"/>
<path d="M180.153 131.33L198.978 141.87C198.978 141.87 199.769 149.53 210.384 149.53C226.598 149.53 242.572 135.062 240.271 130.578C237.454 125.079 229.346 125.93 229.346 125.93L209.113 114.539C208.219 114.015 207.086 114.015 206.158 114.506L180.187 128.319C179.294 128.777 178.985 129.857 179.466 130.709C179.638 130.97 179.878 131.2 180.153 131.33Z" fill="#F6B034"/>
<path d="M180.153 127.795L198.978 138.335C198.978 138.335 199.769 145.962 210.384 145.962C226.598 145.962 242.572 131.494 240.271 127.01C237.454 121.511 229.346 122.362 229.346 122.362L209.113 110.971C208.219 110.447 207.086 110.447 206.158 110.938L180.187 124.751C179.294 125.21 178.985 126.29 179.466 127.141C179.638 127.403 179.878 127.632 180.153 127.795Z" fill="#FBE8AE"/>
<path d="M177.199 122.787V126.159L223.747 127.861H238.416V123.671" fill="#F6B034"/>
<path d="M178.092 127.37L196.918 137.91C196.918 137.91 197.708 145.569 208.289 145.569C224.503 145.569 240.477 131.101 238.176 126.617C235.359 121.118 227.252 121.969 227.252 121.969L207.052 110.545C206.159 110.022 205.025 110.022 204.098 110.513L178.127 124.326C177.234 124.784 176.924 125.864 177.405 126.715C177.577 126.977 177.818 127.206 178.092 127.37Z" fill="#F6B034"/>
<path d="M178.092 123.802L196.917 134.342C196.917 134.342 197.707 141.968 208.288 141.968C224.503 141.968 240.477 127.501 238.175 123.016C235.358 117.517 227.251 118.368 227.251 118.368L207.017 106.945C206.124 106.421 204.99 106.421 204.063 106.912L178.092 120.725C177.199 121.183 176.889 122.264 177.405 123.115C177.576 123.409 177.817 123.638 178.092 123.802Z" fill="#FBE8AE"/>
<path d="M177.199 117.681V121.02L223.747 122.722H238.416V118.532" fill="#F6B034"/>
<path d="M178.092 122.231L196.917 132.771C196.917 132.771 197.707 140.397 208.288 140.43C224.503 140.43 240.477 125.962 238.175 121.478C235.358 115.979 227.251 116.83 227.251 116.83L207.017 105.439C206.124 104.915 204.99 104.915 204.063 105.406L178.092 119.219C177.199 119.678 176.889 120.758 177.37 121.609C177.576 121.838 177.817 122.067 178.092 122.231Z" fill="#F6B034"/>
<path d="M178.092 118.663L196.918 129.203C196.918 129.203 197.708 136.829 208.323 136.862C224.538 136.862 240.512 122.395 238.21 117.91C235.393 112.411 227.286 113.262 227.286 113.262L207.052 101.871C206.159 101.348 205.025 101.348 204.098 101.839L178.127 115.652C177.234 116.11 176.924 117.19 177.405 118.041C177.577 118.27 177.818 118.499 178.092 118.663Z" fill="#FBE8AE"/>
<path d="M207.808 110.316C205.575 110.316 205.575 113.622 207.808 113.622C210.04 113.622 210.04 110.316 207.808 110.316Z" fill="#F6B034"/>
<path d="M231.614 120.954C229.381 120.954 229.381 124.26 231.614 124.26C233.847 124.26 233.847 120.954 231.614 120.954Z" fill="#F6B034"/>
<path d="M212.651 129.137C210.418 129.137 210.418 132.443 212.651 132.443C214.884 132.443 214.884 129.137 212.651 129.137Z" fill="#F6B034"/>
<path d="M203.238 118.63C201.005 118.63 201.005 121.936 203.238 121.936C205.471 121.936 205.471 118.63 203.238 118.63Z" fill="#F6B034"/>
<path d="M190.975 115.422C188.742 115.422 188.742 118.728 190.975 118.728C193.207 118.728 193.242 115.422 190.975 115.422Z" fill="#F6B034"/>
<path d="M213.029 121.576C212.204 121.576 212.204 122.82 213.029 122.82C213.887 122.82 213.887 121.576 213.029 121.576Z" fill="#F6B034"/>
<path d="M223.953 114.932C223.129 114.932 223.129 116.175 223.953 116.175C224.778 116.175 224.778 114.932 223.953 114.932Z" fill="#F6B034"/>
<path d="M222.991 127.501C222.648 127.533 222.373 127.828 222.373 128.155C222.407 128.45 222.648 128.712 222.991 128.745C223.335 128.712 223.61 128.417 223.61 128.09C223.575 127.763 223.335 127.501 222.991 127.501Z" fill="#F6B034"/>
<path d="M214.506 115.062C214.163 115.095 213.888 115.39 213.888 115.717C213.922 116.012 214.163 116.274 214.506 116.306C214.85 116.274 215.124 115.979 215.124 115.652C215.09 115.324 214.85 115.062 214.506 115.062Z" fill="#F6B034"/>
<path d="M199.322 113C198.979 113.033 198.704 113.328 198.704 113.655C198.738 113.95 198.979 114.212 199.322 114.244C199.666 114.212 199.941 113.917 199.941 113.59C199.906 113.262 199.666 113.033 199.322 113Z" fill="#F6B034"/>
<path d="M196.539 123.049L196.402 122.918C196.161 122.656 195.749 122.656 195.474 122.885C195.199 123.115 195.199 123.507 195.44 123.769L195.474 123.802L195.612 123.933C195.887 124.162 196.299 124.129 196.539 123.867C196.78 123.638 196.78 123.278 196.539 123.049Z" fill="#F6B034"/>
<path opacity="0.47" d="M240.856 143.965C240.615 141.739 233.951 141.608 235.978 138.564C238.005 135.52 235.119 134.865 233.195 135.095C231.271 135.324 227.389 141.215 224.744 139.382C222.099 137.549 221.172 128.09 222.924 126.781C224.676 125.471 227.596 129.006 229.313 126.617C231.031 124.227 233.264 120.922 232.439 117.648C231.615 114.375 224.401 112.051 215.881 106.781C215.881 106.781 204.82 104.49 200.182 103.868C199.529 104.326 198.808 104.719 198.086 105.046C196.163 105.865 195.51 106.454 194.033 107.141C191.147 108.483 187.849 110.578 184.757 112.051C185.857 113.426 186.75 114.637 185.548 115.128C182.834 116.241 180.807 118.925 181.15 120.627C181.494 122.329 180.017 126.224 182.971 126.944C185.925 127.664 185.032 124.718 186.612 124.98C188.193 125.242 185.857 130.97 189.052 132.869C192.246 134.767 191.491 127.173 193.62 127.599C195.75 128.024 198.396 128.254 200.388 130.119C202.38 131.985 209.32 129.366 211.037 129.072C212.755 128.777 217.049 127.566 218.423 130.119C219.797 132.672 219.729 139.35 218.939 141.903C218.148 144.456 215.228 146.191 212.343 147.205C209.457 148.22 208.633 152.017 213.202 153.916C217.771 155.814 225.053 148.678 229.485 150.381C233.917 152.083 241.096 146.191 240.856 143.965Z" fill="#F68E2B"/>
<path d="M205.953 117.878C209.065 117.878 211.587 115.474 211.587 112.51C211.587 109.545 209.065 107.141 205.953 107.141C202.842 107.141 200.319 109.545 200.319 112.51C200.319 115.474 202.842 117.878 205.953 117.878Z" fill="#E94139"/>
<path d="M203.514 112.542C203.033 110.578 203.549 108.32 205.129 107.174C202.037 107.6 199.941 110.349 200.388 113.262C200.835 116.208 203.72 118.205 206.778 117.779C207.946 117.616 209.045 117.092 209.904 116.274C207.018 116.863 204.304 115.619 203.514 112.542Z" fill="#C42A2A"/>
<path d="M209.937 110.578C209.8 109.858 209.422 109.204 208.872 108.713C208.254 108.156 207.361 109.04 207.945 109.596C208.323 109.956 208.597 110.415 208.666 110.906C208.769 111.233 209.113 111.429 209.456 111.331C209.834 111.233 210.04 110.906 209.937 110.578Z" fill="white"/>
<path d="M209.56 111.986C209.216 112.019 208.941 112.313 208.941 112.64C208.976 112.935 209.216 113.197 209.56 113.23C209.903 113.197 210.178 112.902 210.178 112.575C210.109 112.248 209.869 112.019 209.56 111.986Z" fill="white"/>
<path d="M204.682 109.695C205.441 109.695 206.056 109.401 206.056 109.04C206.056 108.678 205.441 108.385 204.682 108.385C203.923 108.385 203.308 108.678 203.308 109.04C203.308 109.401 203.923 109.695 204.682 109.695Z" fill="#C42A2A"/>
<path d="M204.854 109.727C204.682 107.6 205.129 105.505 206.125 103.606C205.919 103.312 205.472 103.246 205.163 103.443C205.06 103.508 204.957 103.639 204.922 103.737C204.27 105.668 203.857 107.665 204.27 109.662C204.476 109.695 204.648 109.727 204.854 109.727Z" fill="#631919"/>
<path d="M211.965 119.972C214.602 119.972 216.74 117.935 216.74 115.423C216.74 112.91 214.602 110.873 211.965 110.873C209.327 110.873 207.189 112.91 207.189 115.423C207.189 117.935 209.327 119.972 211.965 119.972Z" fill="#E94139"/>
<path d="M211.002 113.721C212.376 112.608 214.334 112.117 215.846 112.771C214.3 110.742 211.345 110.284 209.216 111.757C207.086 113.23 206.605 116.045 208.151 118.074C208.735 118.86 209.593 119.449 210.555 119.743C208.941 117.878 208.872 115.455 211.002 113.721Z" fill="#C42A2A"/>
<path d="M215.021 117.55C215.536 117.19 215.88 116.666 216.086 116.077C216.292 115.423 215.227 115.095 215.056 115.75C214.918 116.175 214.678 116.535 214.3 116.765C214.094 116.961 214.059 117.288 214.265 117.517C214.472 117.714 214.781 117.714 215.021 117.55Z" fill="white"/>
<path d="M213.785 117.812C213.613 117.55 213.269 117.485 213.029 117.648C212.788 117.779 212.72 118.074 212.823 118.303C212.995 118.565 213.338 118.63 213.579 118.467C213.785 118.303 213.888 118.041 213.785 117.812Z" fill="white"/>
<path d="M214.729 114.152C215.016 114.01 215.007 113.453 214.711 112.908C214.414 112.362 213.942 112.034 213.655 112.175C213.369 112.316 213.377 112.873 213.674 113.419C213.97 113.965 214.443 114.293 214.729 114.152Z" fill="#C42A2A"/>
<path d="M213.716 113.557C215.33 112.608 217.151 112.117 219.04 112.084C219.212 111.822 219.109 111.495 218.834 111.331C218.731 111.266 218.594 111.233 218.456 111.266C216.67 111.56 214.952 112.018 213.544 113.099C213.613 113.262 213.647 113.426 213.716 113.557Z" fill="#631919"/>
<rect x="106.797" y="0.512939" width="102.408" height="64.2236" rx="11.8163" fill="#DBFCE7"/>
<path d="M183.841 47.7091L183.715 47.3949C183.637 47.1906 183.558 46.9864 183.48 46.7665C183.213 46.0123 182.977 45.2582 182.788 44.4884C182.568 43.7186 182.427 42.933 182.333 42.1475C182.333 42.1946 182.38 42.4931 182.348 42.2889C182.348 42.226 182.333 42.1789 182.333 42.1318C182.317 42.0532 182.317 41.9589 182.301 41.8804C182.286 41.6919 182.254 41.4876 182.238 41.2991C182.207 40.9063 182.176 40.5136 182.16 40.1208C182.128 39.3195 182.144 38.534 182.191 37.7327C182.223 37.34 182.254 36.9472 182.301 36.5701C182.317 36.4916 182.317 36.413 182.333 36.3345C182.333 36.3188 182.333 36.2873 182.348 36.2559C182.38 36.0674 182.411 35.8631 182.443 35.6746C182.568 34.9676 182.725 34.2764 182.914 33.5851L193.346 39.4924C194.257 39.9951 194.571 41.1263 194.084 42.0375C193.912 42.3517 193.66 42.6031 193.346 42.7759L183.982 48.0705C183.935 47.9762 183.904 47.8976 183.857 47.8034L183.841 47.7091Z" fill="#C7F1C9"/>
<path d="M161.092 30.867L159.348 31.8411C159.034 32.0139 158.735 32.1867 158.421 32.3595L158.327 32.4066H158.311C158.185 32.3438 158.075 32.281 157.965 32.2181L157.148 31.7625C156.583 31.4483 156.017 31.1341 155.467 30.8041C154.336 30.16 153.189 29.5001 152.074 28.8403C148.476 26.7193 144.91 24.5198 141.406 22.2417L150.33 17.23C151.508 16.5701 152.922 16.5701 154.101 17.23L169.686 26.0438L164.674 28.856L161.092 30.867Z" fill="#C7F1C9"/>
<path d="M157.667 51.1025C157.839 51.1183 158.012 51.1025 158.169 51.0554C159.803 50.537 161.437 50.0028 163.071 49.4686C168.601 47.6462 174.1 45.7452 179.552 43.7499C179.913 45.7452 180.526 47.6776 181.374 49.5157L165.805 58.2981C164.548 59.0051 163.008 59.0051 161.751 58.2981L157.022 55.6115C157.227 54.3075 157.415 53.0193 157.588 51.7153C157.619 51.511 157.651 51.3068 157.667 51.1025Z" fill="#C7F1C9"/>
<path d="M179.205 40.7491C177.681 41.299 176.157 41.8489 174.633 42.3987C169.15 44.3469 163.62 46.2165 158.074 47.9918C158.608 43.7342 159.033 39.4451 159.363 35.1718C159.472 35.1403 159.567 35.0932 159.677 35.0461C160.289 34.7633 160.855 34.4019 161.436 34.072L163.275 33.0351L166.872 31.0241L172.67 27.772L180.242 32.061C180.132 32.4224 180.022 32.7994 179.928 33.1608C179.3 35.6274 179.048 38.1882 179.205 40.7491Z" fill="#C7F1C9"/>
<path d="M122.679 32.768L138.484 23.8914C140.589 25.2739 142.71 26.625 144.847 27.9447C145.884 28.5889 146.92 29.2173 147.973 29.8458C146.905 30.4899 145.852 31.134 144.784 31.7782C140.023 34.669 135.31 37.6069 130.613 40.592L122.663 36.083C121.752 35.5802 121.422 34.4333 121.925 33.5221C122.097 33.2079 122.364 32.9408 122.679 32.768Z" fill="#C7F1C9"/>
<path d="M150.833 31.574C151.1 31.7311 151.383 31.8882 151.65 32.061C152.797 32.7209 153.959 33.3807 155.106 34.0406C155.53 34.2762 155.955 34.5276 156.395 34.7633C156.285 36.2244 156.175 37.7012 156.033 39.1623C155.782 41.9902 155.468 44.8025 155.122 47.6147C155.028 48.3217 154.949 49.013 154.855 49.7043C154.808 50.0656 154.761 50.4427 154.714 50.804V50.8354C154.714 50.8826 154.682 51.024 154.682 51.0397C154.666 51.2125 154.635 51.3853 154.604 51.5581C154.494 52.3908 154.368 53.2078 154.242 54.0247L133.504 42.2416L134.117 41.8488C139.647 38.361 145.224 34.9361 150.833 31.574Z" fill="#C7F1C9"/>
<path d="M147.957 29.8615C146.92 29.2331 145.883 28.6047 144.846 27.9605C142.709 26.6408 140.589 25.274 138.483 23.9071L141.39 22.2732C144.893 24.5513 148.444 26.7508 152.057 28.8717C153.189 29.5316 154.32 30.1914 155.451 30.8356C156.017 31.1498 156.582 31.464 157.132 31.7939L157.949 32.2496C158.059 32.3124 158.185 32.3752 158.295 32.4381H158.31L158.405 32.391C158.719 32.2181 159.033 32.0453 159.347 31.8725L161.091 30.8984L164.642 28.9189L169.654 26.1066L172.654 27.8034L166.857 31.0555L163.259 33.0665L161.421 34.1034C160.84 34.4334 160.258 34.7947 159.661 35.0775C159.567 35.1246 159.457 35.1718 159.347 35.2032C159.017 39.4922 158.593 43.7656 158.059 48.0232C163.605 46.2479 169.135 44.3783 174.618 42.4302C176.142 41.8803 177.666 41.3304 179.19 40.7805C179.033 38.2354 179.269 35.6745 179.913 33.1922C180.007 32.8152 180.117 32.4538 180.227 32.0925L182.913 33.6007C182.725 34.292 182.568 34.9832 182.442 35.6902C182.411 35.8788 182.379 36.083 182.348 36.2715C182.348 36.2872 182.348 36.3187 182.332 36.3501C182.316 36.4286 182.316 36.5072 182.301 36.5858C182.254 36.9785 182.222 37.3556 182.191 37.7484C182.144 38.5496 182.128 39.3351 182.159 40.1364C182.175 40.5292 182.191 40.9219 182.238 41.3147C182.254 41.5032 182.269 41.7075 182.301 41.896C182.316 41.9746 182.316 42.0688 182.332 42.1474C182.332 42.2102 182.348 42.2574 182.348 42.3045C182.379 42.5087 182.332 42.2102 182.332 42.1631C182.411 42.9486 182.568 43.7342 182.788 44.504C182.976 45.2738 183.212 46.0437 183.479 46.7978C183.558 47.002 183.636 47.222 183.715 47.4262L183.84 47.7404L183.872 47.8033C183.919 47.8975 183.95 47.9761 183.997 48.0704L181.389 49.5472C180.541 47.709 179.928 45.7766 179.567 43.7813C174.1 45.7766 168.617 47.6776 163.086 49.5C161.452 50.0342 159.819 50.5684 158.2 51.0868C158.043 51.134 157.87 51.1497 157.698 51.134C157.666 51.3382 157.65 51.5424 157.619 51.7467C157.43 53.0507 157.242 54.339 157.053 55.643L154.273 54.0719C154.398 53.2549 154.524 52.4223 154.634 51.6053C154.65 51.4325 154.681 51.2597 154.713 51.0868C154.713 51.0711 154.728 50.9297 154.744 50.8826V50.8512C154.791 50.4898 154.838 50.1128 154.885 49.7514C154.98 49.0601 155.058 48.3532 155.152 47.6619C155.498 44.8496 155.797 42.0217 156.064 39.2095C156.189 37.7483 156.315 36.2715 156.425 34.8104C155.985 34.5748 155.577 34.3234 155.137 34.0877C153.99 33.4436 152.827 32.7837 151.68 32.1082C151.413 31.9511 151.13 31.7939 150.863 31.6211C145.239 34.9832 139.677 38.4082 134.147 41.9117L133.55 42.2888L130.644 40.6391C135.325 37.6541 140.054 34.7162 144.815 31.8254C145.82 31.1341 146.889 30.4899 147.957 29.8615Z" fill="#C7F1C9"/>
<path d="M173.55 53.9305L129.717 28.5889L141.359 22.0532L185.694 47.0806L173.55 53.9305Z" fill="#FAFAE2"/>
<path opacity="0.68" d="M154.854 25.0855L153.126 23.4515L145.082 27.2536C145.899 27.6777 147.109 28.4004 148.256 29.076C150.549 27.8977 152.749 26.5623 154.854 25.0855Z" fill="url(#paint4_linear_605_3695)"/>
<path d="M153.787 8.77759H153.127V24.6141H153.787V8.77759Z" fill="#3E3E4A"/>
<path d="M153.409 10.3487C154.494 10.3487 155.373 9.46948 155.373 8.38487C155.373 7.30027 154.494 6.42102 153.409 6.42102C152.325 6.42102 151.445 7.30027 151.445 8.38487C151.445 9.46948 152.325 10.3487 153.409 10.3487Z" fill="#97CCAA"/>
<path d="M152.514 8.05488C152.74 8.05488 152.922 7.87199 152.922 7.6464C152.922 7.4208 152.74 7.23792 152.514 7.23792C152.288 7.23792 152.105 7.4208 152.105 7.6464C152.105 7.87199 152.288 8.05488 152.514 8.05488Z" fill="white"/>
<path opacity="0.4" d="M154.885 7.1123C155.231 8.05495 154.807 9.12329 153.896 9.54748C153 10.0031 152.089 9.75172 151.57 9.10758C151.963 10.1131 153.094 10.6158 154.115 10.223C155.121 9.83028 155.624 8.6991 155.231 7.67789C155.152 7.47365 155.042 7.28512 154.885 7.1123Z" fill="#3E3E4A"/>
<path d="M154.257 20.5764L154.98 24.8812C154.98 24.8812 154.556 25.164 153.22 25.2111C151.885 25.2582 151.948 24.8026 151.948 24.8026L152.655 20.5764H154.257Z" fill="#3E3E4A"/>
<path d="M153.457 20.9851C153.899 20.9851 154.258 20.8022 154.258 20.5766C154.258 20.351 153.899 20.1681 153.457 20.1681C153.014 20.1681 152.655 20.351 152.655 20.5766C152.655 20.8022 153.014 20.9851 153.457 20.9851Z" fill="#3E3E4A"/>
<path d="M153.456 25.6825C154.289 25.6825 154.965 25.3378 154.965 24.9127C154.965 24.4875 154.289 24.1428 153.456 24.1428C152.624 24.1428 151.948 24.4875 151.948 24.9127C151.948 25.3378 152.624 25.6825 153.456 25.6825Z" fill="#3E3E4A"/>
<path opacity="0.68" d="M184.909 41.4089L183.809 39.9792L175.356 43.7813C176.173 44.2055 177.383 44.9282 178.53 45.6037C180.824 44.4411 182.803 42.87 184.909 41.4089Z" fill="url(#paint5_linear_605_3695)"/>
<path d="M183.228 27.7877H184.674C184.846 27.7877 184.988 27.9291 184.988 28.1019V41.2676C184.988 41.4404 184.846 41.5818 184.674 41.5818H183.228C183.055 41.5818 182.914 41.4404 182.914 41.2676V28.1019C182.914 27.9291 183.055 27.7877 183.228 27.7877Z" fill="#A0421D"/>
<path d="M189.088 30.6C188.601 28.5261 186.48 19.351 182.694 22.0376C180.762 23.4201 180.212 25.5725 179.442 27.6935C178.798 29.4374 178.264 31.2755 178.232 33.1608C178.169 36.9786 182.05 37.4499 185.019 37.4342C186.732 37.4185 189.183 36.413 189.575 34.5591C189.811 33.4436 189.403 32.1082 189.167 31.0084C189.151 30.8828 189.12 30.7414 189.088 30.6Z" fill="#96D799"/>
<path d="M189.277 31.0084C189.246 30.867 189.214 30.7413 189.183 30.5999C188.759 28.7617 187.046 21.3777 184.045 21.5505C184.941 25.4468 186.245 29.563 185.554 33.5378C185.318 34.9204 184.784 36.3029 183.967 37.4027C184.36 37.4184 184.752 37.4341 185.145 37.4184C186.858 37.4184 189.308 36.3972 189.701 34.5433C189.921 33.4279 189.513 32.1081 189.277 31.0084Z" fill="#AAE0AD"/>
<path opacity="0.68" d="M165.522 44.7868L163.417 42.8073L153.645 47.4262C154.65 47.9447 156.111 48.8245 157.509 49.6415C160.274 48.1961 162.961 46.5778 165.522 44.7868Z" fill="url(#paint6_linear_605_3695)"/>
<path d="M155.86 32.3595C155.672 32.3438 153.771 31.4954 151.069 31.2126C151.069 31.2126 150.205 31.7154 150.582 32.2496C150.959 32.7837 153.944 34.3705 156.677 34.3862" fill="#FFDFCE"/>
<path d="M151.619 31.2284C151.634 31.2284 151.65 31.2127 151.65 31.2127C151.571 31.0556 151.493 30.8985 151.43 30.7885C151.226 30.4743 150.739 30.1601 150.472 30.49C150.205 30.8199 149.545 31.4955 149.042 31.9983C148.539 32.501 148.304 33.805 148.728 33.9464C149.152 34.0878 149.843 33.5693 150.173 33.2708C150.424 33.0509 150.77 32.6895 150.927 32.5167C150.817 31.9825 151.116 31.4327 151.619 31.2284Z" fill="#3E3E4A"/>
<path d="M163.888 34.0092C163.888 34.0092 163.762 42.1788 163.448 42.3202C163.134 42.4616 162.348 42.4459 162.05 42.0531C161.751 41.6603 161.39 38.1254 161.453 37.1513C161.515 36.1773 161.908 33.962 161.908 33.962" fill="#FFDFCE"/>
<path d="M163.998 42.7758C163.809 42.493 163.684 42.1631 163.637 41.8174C162.993 41.9746 162.49 42.0688 161.94 41.7389C161.83 42.2102 161.453 42.7758 161.484 43.1372C161.531 43.7027 162.003 43.5142 162.49 43.6713C162.82 43.7813 163.071 44.1269 163.275 44.4412C163.904 45.1639 165.003 45.321 165.868 44.9282C165.93 44.7868 165.962 44.6454 165.978 44.504C166.025 43.8599 164.344 43.2628 163.998 42.7758Z" fill="#3E3E4A"/>
<path d="M157.29 26.1694C156.945 26.3422 156.489 27.9604 156.018 29.7514C155.546 31.5425 155.264 33.4592 155.264 33.4592C155.264 33.4592 155.939 34.3861 157.039 34.4176C158.139 34.449 159.49 29.8457 159.49 29.8457C159.49 29.8457 160.998 34.7318 161.517 34.8732C162.035 35.0146 163.889 34.0248 163.889 34.0248C163.889 34.0248 163.37 26.6878 160.731 25.5095" fill="#97CCAA"/>
<path opacity="0.31" d="M157.29 26.1694C156.945 26.3422 156.489 27.9604 156.018 29.7514C155.546 31.5425 155.264 33.4592 155.264 33.4592C155.264 33.4592 155.939 34.3861 157.039 34.4176C158.139 34.449 159.49 29.8457 159.49 29.8457C159.49 29.8457 160.998 34.7318 161.517 34.8732C162.035 35.0146 163.889 34.0248 163.889 34.0248C163.889 34.0248 163.37 26.6878 160.731 25.5095" fill="#3E3E4A"/>
<path d="M162.019 21.4404C162.019 21.4404 162.49 21.9432 162.788 22.006C163.087 22.0689 163.637 21.8646 163.857 22.116C164.077 22.3674 164.234 22.713 164.155 22.9801C164.077 23.2472 163.778 23.9856 163.495 23.9227C163.213 23.8599 162.647 23.7656 162.647 23.4514C162.647 23.1372 162.097 22.603 162.097 22.603" fill="#FFDFCE"/>
<path d="M156.709 20.5137C156.709 20.5137 157.573 19.5082 158.107 19.2725C159.034 18.8483 160.26 18.6441 160.511 18.6598C160.762 18.6755 161.689 18.8797 161.862 19.5082C162.035 20.1366 162.428 21.7548 162.161 23.2159C161.972 24.3 161.862 25.4154 161.831 26.5152C161.831 26.5152 160.857 27.5207 159.427 27.3793C158.579 27.3007 157.809 26.8608 157.306 26.1695L157.07 21.8648" fill="#97CCAA"/>
<path d="M154.462 25.6196C154.305 25.3525 154.273 25.0226 154.399 24.7398C154.886 23.5615 156.347 20.2151 157.164 20.3093C158.169 20.4036 158.766 21.3619 158.311 22.3517C157.855 23.3415 155.891 24.5827 156.19 25.164C156.488 25.7453 157.792 27.552 158.138 27.5363C158.484 27.5206 159.112 27.5206 159.411 27.662C159.709 27.8034 159.803 28.1962 159.803 28.4947C159.803 28.7932 159.034 29.5473 158.672 29.6101C158.311 29.673 157.651 28.8089 157.604 28.6518C157.557 28.4947 155.326 27.0493 154.462 25.6196Z" fill="#FFDFCE"/>
<path d="M161.563 17.7327C162.05 17.4814 162.427 17.0729 162.631 16.5544C162.946 15.7218 162.129 15.1405 161.642 15.0462C161.642 15.0462 161.877 15.2976 161.893 15.4233C161.893 15.4233 161.626 14.8577 160.636 14.8577C159.646 14.8577 160.479 15.1876 160.479 15.1876C160.479 15.1876 159.536 14.8577 158.987 14.9048C158.437 14.9519 158.107 15.1562 158.17 15.2661C158.232 15.3761 158.468 15.329 158.547 15.4075C158.625 15.4861 157.981 15.7218 157.902 15.9574C157.824 16.1931 158.248 16.4445 158.201 16.5073C158.154 16.5701 157.73 16.2402 157.683 16.3345C157.635 16.4287 158.17 18.5497 159.678 18.7539" fill="#A0421D"/>
<path d="M161.862 16.8372C161.846 16.8372 161.83 16.8215 161.815 16.8215C161.532 16.8372 161.233 16.8058 160.951 16.7586C160.668 16.6801 160.401 16.5701 160.118 16.5073C159.929 16.4601 159.694 16.8529 159.537 17.3871C159.442 17.2771 159.301 17.2142 159.175 17.3085C159.05 17.4342 159.034 17.6384 159.144 17.7955C159.207 17.9055 159.301 17.9841 159.411 18.0469C159.332 18.6282 159.631 19.1938 160.149 19.4609C160.621 19.6808 161.013 19.4766 161.265 19.0838C161.626 18.5339 161.768 18.0155 161.909 17.3871C161.925 17.2928 161.956 17.1985 161.972 17.0886C161.988 16.9943 161.956 16.9 161.893 16.8372C161.893 16.8686 161.878 16.8529 161.862 16.8372Z" fill="#FFDFCE"/>
<path d="M161.814 16.6016C161.814 16.6016 160.369 17.7799 159.631 17.4343C158.892 17.0886 160.086 16.1931 160.086 16.1931" fill="#A0421D"/>
<path opacity="0.68" d="M127.847 39.0368C128.633 38.5812 129.403 38.0784 130.141 37.5442L129.246 35.926L125.585 37.6542C126.213 38.2041 127.203 38.5183 127.847 39.0368Z" fill="url(#paint7_linear_605_3695)"/>
<path d="M128.884 27.8192H129.858C130.015 27.8192 130.125 27.9449 130.125 28.0863V37.6071C130.125 37.7642 130 37.8741 129.858 37.8741H128.884C128.727 37.8741 128.617 37.7485 128.617 37.6071V28.0863C128.617 27.9449 128.743 27.8192 128.884 27.8192Z" fill="#A0421D"/>
<path d="M133.127 29.8777C132.781 28.3538 131.226 21.661 128.461 23.6405C127.047 24.646 126.654 26.2171 126.088 27.7568C125.617 29.0293 125.224 30.3805 125.209 31.7473C125.161 34.5281 127.989 34.8738 130.157 34.858C131.414 34.858 133.19 34.1196 133.488 32.7528C133.661 31.9358 133.363 30.9618 133.19 30.1762C133.174 30.082 133.143 29.972 133.127 29.8777Z" fill="#96D799"/>
<path d="M133.252 30.1758L133.189 29.8773C132.875 28.5262 131.633 23.1531 129.434 23.2788C130.078 26.1224 131.036 29.1232 130.534 32.0297C130.377 33.0509 129.968 34.0093 129.371 34.8419C129.654 34.8577 129.952 34.8577 130.219 34.8577C131.476 34.8577 133.252 34.1192 133.55 32.7524C133.723 31.9354 133.424 30.9771 133.252 30.1758Z" fill="#AAE0AD"/>
<rect x="0.450195" y="102.756" width="102.408" height="98.3048" rx="11.8163" fill="#DBEAFE"/>
<path d="M59.1397 139.1L89.4293 156.553C90.0105 156.885 90.2264 157.649 89.8777 158.23C89.7614 158.413 89.612 158.579 89.4293 158.679L46.7017 183.206C45.6721 183.804 44.3934 183.821 43.3473 183.239L13.9046 167.198C13.3068 166.866 13.0909 166.135 13.4064 165.537C13.5226 165.338 13.6721 165.172 13.8714 165.056L59.1065 139.067" fill="#C9E0FF"/>
<path d="M78.5019 159.044L68.6545 162.565C68.6545 162.565 67.791 164.225 72.7396 167.165L80.6109 159.891" fill="url(#paint8_linear_605_3695)"/>
<path d="M75.7451 148.234C76.0772 148.217 76.3928 148.283 76.6917 148.416C76.9906 148.582 77.2231 148.848 77.3559 149.18C77.5054 149.479 77.5718 149.911 77.8707 150.11C77.9869 150.177 78.0866 150.26 78.1696 150.376C78.3191 150.592 78.3523 150.857 78.2526 151.106C78.1198 151.372 77.5552 151.538 77.3061 151.488" fill="#8FDB5E"/>
<path d="M75.4954 148.267C74.7149 148.333 74.0838 148.898 73.8846 149.645C73.7849 150.01 73.7849 150.409 73.868 150.774C73.9344 151.073 74.117 151.605 74.4824 151.621C74.9806 151.654 75.1466 151.19 75.2961 150.808C75.4455 150.426 75.6116 150.01 76.0102 149.861C76.4087 149.712 76.8571 149.811 77.156 150.127L75.4954 148.267Z" fill="#1E8C0E"/>
<path d="M77.7549 150.276C77.456 149.894 77.2069 149.463 76.9246 149.064C76.7585 148.798 76.5592 148.566 76.3433 148.367C75.6625 148.034 74.7824 148.333 74.2676 148.931C74.334 148.948 74.4336 148.964 74.4835 148.981C74.7824 149.097 75.0647 149.296 75.2805 149.546C75.5795 149.878 75.8286 150.293 76.0943 150.658C76.526 151.239 77.1072 151.721 77.8711 151.372C78.3527 151.14 77.9707 150.559 77.7549 150.276Z" fill="#8FDB5E"/>
<path d="M80.1956 145.278C80.1956 145.278 81.7565 145.162 81.7233 147.619C81.6901 150.077 79.3653 148.466 79.88 146.972" fill="#1E8C0E"/>
<path d="M79.9796 147.702C79.963 146.955 80.8099 146.407 81.5074 146.307C81.3912 145.876 80.9594 145.178 80.0959 145.211C79.0331 145.245 78.236 146.324 78.0533 147.603C77.8707 148.881 78.8338 149.678 78.8338 149.678L79.3486 150.11C80.2951 149.745 79.9464 148.383 79.9796 147.702Z" fill="#8FDB5E"/>
<path d="M84.2145 149.462C84.1979 148.998 84.065 148.549 83.8492 148.134C83.6499 147.735 83.2845 147.437 82.8362 147.354L81.9561 149.031C81.9561 149.031 83.2679 146.756 82.7199 148.499C82.1719 150.243 83.9488 152.219 84.1813 149.612C84.1979 149.562 84.2145 149.512 84.2145 149.462Z" fill="#1E8C0E"/>
<path d="M78.0204 153.863C78.0204 153.863 76.8579 154.627 77.1734 156.404C77.2897 157.018 77.4557 157.633 77.6882 158.214C77.9207 158.795 78.0868 159.542 78.668 159.875C79.216 160.173 80.0629 160.24 80.5943 159.891C81.0925 159.592 81.2752 158.895 81.4578 158.363C81.6737 157.732 81.8232 157.068 81.9062 156.404C82.4708 152.086 78.0204 153.863 78.0204 153.863Z" fill="#A1C3FC"/>
<path d="M79.5981 154.727C80.5428 154.727 81.3086 154.452 81.3086 154.112C81.3086 153.773 80.5428 153.498 79.5981 153.498C78.6535 153.498 77.8877 153.773 77.8877 154.112C77.8877 154.452 78.6535 154.727 79.5981 154.727Z" fill="#F6CDC1"/>
<path d="M79.7313 150.824C79.4988 150.243 79.0504 149.761 78.9009 149.147C78.7183 148.3 79.067 147.42 79.7811 146.905C79.9139 146.805 79.7811 146.59 79.6482 146.689C78.5522 147.486 78.3363 148.831 78.984 149.994C79.1832 150.343 79.4323 150.691 79.5652 151.09C79.7146 151.605 79.5486 151.97 79.2995 152.352C79.3161 151.97 79.1833 151.605 78.9176 151.322C78.6352 151.057 78.2201 151.007 77.8714 150.891C77.1905 150.658 76.5927 150.276 76.4764 149.512C76.4598 149.346 76.2108 149.413 76.2274 149.579C76.327 150.193 76.7255 150.641 77.2735 150.924C77.6057 151.073 77.9378 151.189 78.2865 151.273C78.5854 151.389 78.8345 151.621 78.9508 151.92C79.1168 152.285 79.0006 152.551 78.9176 152.9C78.8013 153.365 78.6186 153.763 78.9342 154.212C79.0338 154.345 79.2497 154.212 79.15 154.079C78.6352 153.382 79.4489 152.701 79.7313 152.103C79.9305 151.704 79.9305 151.239 79.7313 150.824Z" fill="#1E8C0E"/>
<path d="M82.8859 149.28C81.8065 149.097 81.0758 149.927 81.1423 150.974C81.1589 151.239 81.2087 151.488 81.2917 151.754C81.3415 151.937 81.4578 152.236 81.4412 152.418C81.3747 152.75 81.1423 153.016 80.8267 153.132C80.3618 153.348 80.0629 153.614 79.9134 154.129C79.8968 154.195 79.93 154.262 79.9964 154.278C80.0629 154.295 80.1293 154.262 80.1459 154.195C80.395 153.282 81.6737 153.415 81.6737 152.402C81.6737 151.903 81.4246 151.455 81.3914 150.957C81.3415 150.093 81.9061 149.346 82.8195 149.512C82.9855 149.545 83.052 149.313 82.8859 149.28Z" fill="#1E8C0E"/>
<path d="M83.8493 148.134C83.4342 147.37 82.6703 147.188 81.923 147.403C81.8234 147.437 81.7237 147.486 81.6241 147.553C79.7476 148.948 81.0761 152.07 81.375 152.053C82.3382 151.97 82.2219 151.406 82.5541 149.845C82.6703 149.114 83.3013 148.566 84.0486 148.583C83.9988 148.416 83.9324 148.267 83.8493 148.134Z" fill="#8FDB5E"/>
<path d="M83.4334 147.619C82.7858 147.52 82.1547 147.818 81.8392 148.383C81.1584 149.529 81.3078 150.857 81.4075 152.136C81.4241 152.302 81.6732 152.302 81.6566 152.136C81.5901 151.223 81.4573 150.309 81.7064 149.413C81.8226 148.981 81.9721 148.483 82.3208 148.167C82.7027 147.818 83.2674 147.735 83.7323 147.968L83.6327 147.835C83.5829 147.769 83.5164 147.686 83.4334 147.619Z" fill="#1E8C0E"/>
<path d="M25.1631 163.495V140.827C25.1631 140.08 25.2627 139.648 25.8439 139.333L56.6483 121.498C56.9472 121.332 57.296 121.481 57.296 121.83L57.2129 145.145L25.1631 163.495Z" fill="#B6CDFF"/>
<path d="M55.2575 127.415C55.5538 126.734 55.31 125.971 54.7129 125.711C54.1158 125.452 53.3915 125.793 53.0952 126.474C52.7988 127.156 53.0427 127.918 53.6398 128.178C54.2369 128.438 54.9612 128.096 55.2575 127.415Z" fill="white"/>
<path d="M30.8262 147.569V156.072L32.5864 155.042L32.603 146.54L30.8262 147.569Z" fill="#1E8C0E"/>
<path d="M33.7822 144.431L33.749 154.428L35.6089 153.348V143.401L33.7822 144.431Z" fill="#F6CDC1"/>
<path d="M36.7715 141.724L36.7383 152.75L38.3823 151.804V140.744L36.7715 141.724Z" fill="white"/>
<path d="M55.2634 130.932C55.5597 130.251 55.3159 129.488 54.7187 129.229C54.1216 128.969 53.3973 129.31 53.101 129.992C52.8047 130.673 53.0485 131.436 53.6456 131.695C54.2427 131.955 54.967 131.613 55.2634 130.932Z" fill="#F6CDC1"/>
<path d="M55.1523 134.513C55.5655 133.896 55.4617 133.102 54.9205 132.74C54.3793 132.377 53.6057 132.584 53.1925 133.202C52.7793 133.819 52.8831 134.613 53.4242 134.975C53.9654 135.338 54.7391 135.131 55.1523 134.513Z" fill="#1E8C0E"/>
<path d="M48.1965 132.093C45.39 131.196 42.2515 133.487 41.0558 137.29C40.5078 139.034 40.458 140.844 40.923 142.388C41.4378 144.066 42.484 145.228 43.8955 145.66C44.294 145.793 44.7092 145.859 45.1243 145.842C46.1539 145.842 47.2333 145.444 48.2131 144.68C49.4917 143.7 50.4881 142.189 51.0527 140.445C52.2484 136.643 51.0029 132.973 48.1965 132.093Z" fill="white"/>
<path d="M46.0543 131.993C46.0376 131.993 46.0543 139.05 46.0543 139.05L51.2354 135.53C51.2354 135.513 50.239 131.262 46.0543 131.993Z" fill="#F6CDC1"/>
<path d="M30.9756 157.118C30.9756 157.35 31.1583 157.533 31.3741 157.533C31.4406 157.533 31.507 157.516 31.5734 157.483L39.1458 153.149C39.2787 153.083 39.3451 152.95 39.3451 152.8C39.3451 152.584 39.1624 152.402 38.9465 152.402C38.8801 152.402 38.8137 152.418 38.7473 152.452L31.1749 156.769C31.0586 156.836 30.9756 156.968 30.9756 157.118Z" fill="#FFE427"/>
<path d="M29.332 140.512V143.584C29.332 143.816 29.5313 144.016 29.7638 144.016C29.8468 144.016 29.9132 143.999 29.9797 143.966L38.316 139.15C38.4488 139.067 38.5318 138.934 38.5318 138.785V135.713C38.5318 135.48 38.3326 135.281 38.1001 135.281C38.017 135.281 37.9506 135.297 37.8842 135.331L29.5479 140.146C29.4151 140.23 29.332 140.362 29.332 140.512Z" fill="#FFE427"/>
<path d="M32.2374 141.625C32.4649 140.908 32.1817 140.178 31.6048 139.995C31.0278 139.812 30.3757 140.245 30.1482 140.961C29.9207 141.678 30.204 142.408 30.7809 142.591C31.3578 142.774 32.01 142.341 32.2374 141.625Z" fill="white"/>
<path d="M32.6697 139.665L36.9374 137.274L37.5353 136.925C37.6681 136.842 37.5519 136.626 37.4024 136.709L33.1346 139.1L32.5368 139.449C32.487 139.482 32.4704 139.565 32.5036 139.615C32.5534 139.665 32.6032 139.681 32.6697 139.665Z" fill="#34323D"/>
<path d="M32.8518 140.844L35.5088 139.366L35.8907 139.15C35.9405 139.117 35.9571 139.034 35.9239 138.984C35.8907 138.934 35.8243 138.918 35.7744 138.951L33.1175 140.429L32.7355 140.645C32.5861 140.711 32.7023 140.927 32.8518 140.844Z" fill="#34323D"/>
<path d="M46.0547 139.05L51.3022 139.482C51.3022 139.482 51.9665 137.224 51.2358 135.513L46.0547 139.05Z" fill="#1E8C0E"/>
<path d="M57.2289 172.694L46.1527 179.021C42.1008 176.232 42.5159 176.647 42.5159 176.647L50.6363 172.744C50.6363 172.744 52.7951 173.325 52.8781 172.977C52.9612 172.628 54.0738 171.482 54.0738 171.482L56.6976 171.432L57.2289 172.694Z" fill="url(#paint9_linear_605_3695)"/>
<path d="M39.7931 151.007C39.4443 151.007 39.0956 150.974 38.7635 150.907C37.2191 150.592 35.9238 149.612 35.0935 148.15C33.4329 145.062 34.2134 141.242 36.9368 139.05C38.2653 138.021 39.8595 137.639 41.3873 137.954C42.915 138.27 44.2269 139.25 45.0572 140.711C45.8875 142.205 46.1366 143.933 45.7879 145.593C45.1569 148.765 42.5829 151.007 39.7931 151.007ZM40.3577 138.984C39.3613 139 38.4148 139.333 37.6343 139.947C35.3592 141.79 34.7116 144.995 36.0899 147.569C36.7542 148.732 37.7837 149.512 38.996 149.761C41.5201 150.276 44.0775 148.283 44.6753 145.344C44.9742 143.949 44.7583 142.504 44.0775 141.259C43.4132 140.097 42.3836 139.316 41.1714 139.067C40.9057 139.017 40.6234 138.984 40.3577 138.984Z" fill="#B6CDFF"/>
<path d="M45.4555 146.772L54.6719 151.322C54.6719 151.322 55.0372 152.518 54.2401 152.833C53.443 153.132 44.0771 148.084 44.0771 148.084" fill="#B6CDFF"/>
<g opacity="0.25">
<path d="M39.7931 151.007C39.4443 151.007 39.0956 150.974 38.7635 150.907C37.2191 150.592 35.9238 149.612 35.0935 148.15C33.4329 145.062 34.2134 141.242 36.9368 139.05C38.2653 138.021 39.8595 137.639 41.3873 137.954C42.915 138.27 44.2269 139.25 45.0572 140.711C45.8875 142.205 46.1366 143.933 45.7879 145.593C45.1569 148.765 42.5829 151.007 39.7931 151.007ZM40.3577 138.984C39.3613 139 38.4148 139.333 37.6343 139.947C35.3592 141.79 34.7116 144.995 36.0899 147.569C36.7542 148.732 37.7837 149.512 38.996 149.761C41.5201 150.276 44.0775 148.283 44.6753 145.344C44.9742 143.949 44.7583 142.504 44.0775 141.259C43.4132 140.097 42.3836 139.316 41.1714 139.067C40.9057 139.017 40.6234 138.984 40.3577 138.984Z" fill="#968EBC"/>
<path d="M45.4555 146.772L54.6719 151.322C54.6719 151.322 55.0372 152.518 54.2401 152.833C53.443 153.132 44.0771 148.084 44.0771 148.084" fill="#968EBC"/>
</g>
<path d="M50.4702 149.429C49.9222 149.147 49.3908 148.865 48.8594 148.549C48.7597 148.35 48.6601 148.151 48.5439 147.951C48.3612 147.652 48.0623 147.436 47.697 147.503C47.5475 147.536 47.4479 147.686 47.4811 147.835C47.4977 147.951 47.5973 148.051 47.7302 148.068L47.78 148.117C47.1157 148.151 45.9367 148.25 46.2024 148.898C46.1858 148.914 46.1526 148.948 46.136 148.964C46.0031 149.13 46.0197 149.379 46.1692 149.529C46.2854 149.645 46.4515 149.695 46.6176 149.645C46.7172 149.861 46.9829 149.961 47.1988 149.861L47.3648 149.811C47.3482 149.944 47.4479 150.077 47.5807 150.093C47.6139 150.093 47.6471 150.093 47.6637 150.093L48.2117 149.994C49.4406 150.392 50.055 150.525 50.52 150.841C50.52 151.023 50.7193 150.974 50.52 150.841C50.603 150.725 50.5864 150.575 50.4702 150.475C50.4702 150.475 50.4536 150.475 50.4536 150.459L50.4038 150.426C50.52 150.343 50.5532 150.176 50.4536 150.06C50.4536 150.06 50.4536 150.044 50.437 150.044C50.4204 150.01 50.3871 149.994 50.3705 149.961C50.6362 149.994 50.7525 149.579 50.4702 149.429Z" fill="#BC755F"/>
<path d="M56.7983 168.377L57.0972 172.611L56.5658 173.076L55.9846 172.927C55.9846 172.927 56.0676 171.798 55.8517 171.565C55.6358 171.333 55.2871 172.545 55.0878 172.528C54.8886 172.512 52.4807 171.881 52.4475 171.582C52.3976 171.183 52.9456 170.752 53.9586 170.984C55.0546 171.25 55.2539 170.004 55.4366 168.825" fill="#1E8C0E"/>
<path d="M55.0699 169.224C55.0699 169.224 56.1161 169.672 57.9096 168.51C57.9096 168.51 57.2785 162.88 57.345 161.917C57.4114 160.954 58.4742 153.946 57.1457 152.418C55.8172 150.891 53.4093 165.703 53.5255 165.786" fill="#A1C3FC"/>
<path d="M55.9341 171.731L55.8344 171.565C55.8344 171.565 55.5355 171.299 55.2532 171.432C54.9709 171.565 55.0041 172.578 55.0041 172.578L56.0005 172.213C56.0171 172.03 56.0005 171.864 55.9341 171.731Z" fill="#968EBC"/>
<path d="M53.526 170.469L53.4264 174.72L52.8452 175.136L52.2806 174.92C52.2806 174.92 52.4632 173.807 52.2806 173.541C52.0979 173.276 51.6329 174.455 51.4337 174.438C51.2344 174.422 48.9095 173.541 48.8929 173.242C48.8763 172.844 49.4575 172.462 50.4539 172.794C51.5333 173.159 51.8322 171.947 52.1311 170.785" fill="#1E8C0E"/>
<path d="M52.3645 173.707L52.2815 173.541C52.2815 173.541 52.0158 173.242 51.7169 173.342C51.418 173.442 51.3682 174.455 51.3682 174.455L52.3977 174.172C52.4144 174.023 52.3977 173.857 52.3645 173.707Z" fill="#968EBC"/>
<path d="M53.1778 154.079C53.1778 154.079 51.401 158.878 51.0024 160.954C50.6039 163.03 50.5873 170.835 50.7201 171.034C50.853 171.233 52.5966 171.615 53.759 171.598C54.9215 171.582 54.772 162.382 54.772 162.382C54.772 162.382 57.9438 154.328 57.0969 153.448C56.2499 152.568 53.1778 154.079 53.1778 154.079Z" fill="#A1C3FC"/>
<path d="M53.1115 154.162C54.7223 154.677 56.7814 154.062 57.7612 152.667C57.5785 150.392 57.18 146.639 56.5988 146.075C55.7518 145.261 53.9252 146.423 53.2775 147.553C52.9288 148.134 52.2978 150.226 52.2978 150.226L49.8068 148.815L49.0596 150.575C49.0596 150.575 50.7534 153.78 53.0616 153.049L53.1115 154.162Z" fill="#968EBC"/>
<path d="M54.6561 150.01C54.6561 149.961 54.6063 149.911 54.5565 149.911C54.5066 149.911 54.4568 149.961 54.4568 150.01C54.4568 150.741 54.4402 151.505 54.0915 152.153C53.8092 152.684 53.2944 153.132 52.6634 153.166C52.5471 153.166 52.5471 153.365 52.6634 153.348C53.3276 153.315 53.8922 152.867 54.2243 152.319C54.6229 151.621 54.6561 150.791 54.6561 150.01Z" fill="white"/>
<path d="M53.792 141.957C53.6592 141.99 53.4599 142.189 53.1278 142.936C52.7957 143.684 53.5595 144.63 53.8917 144.829C54.2238 145.029 54.6888 145.793 54.6888 145.793C54.6888 145.793 55.901 146.091 56.6981 144.614C57.4952 143.136 55.7515 141.541 53.792 141.957Z" fill="#624545"/>
<path d="M53.4436 142.787C53.4436 142.787 52.8292 145.261 53.7259 145.826C54.6227 146.39 55.8349 144.896 55.9512 144.298C56.0674 143.7 55.4198 142.405 53.4436 142.787Z" fill="#BC755F"/>
<path d="M53.4431 142.787C53.4431 142.787 53.2936 144.398 54.1239 144.746C54.9542 145.095 54.9709 145.61 54.9709 145.61C54.9709 145.61 56.4986 144.796 56.6481 144.065C56.7975 143.335 54.6221 142.139 53.4431 142.787Z" fill="#624545"/>
<path d="M56.2493 144.73C55.9504 147.154 56.5482 150.243 55.5518 152.518C55.4854 152.651 55.3526 153.282 55.2529 153.282L57.694 151.953C58.6738 151.355 59.3879 150.957 59.0391 149.429C58.6904 147.901 56.7143 144.63 56.7143 144.63L56.2493 144.73Z" fill="#624545"/>
<path d="M52.5294 149.031C52.3799 149.678 52.2471 150.326 52.1641 150.974C52.1475 151.09 52.3467 151.09 52.3467 150.974C52.4298 150.343 52.546 149.712 52.6955 149.081C52.7453 148.964 52.5626 148.915 52.5294 149.031Z" fill="white"/>
<path d="M55.9669 145.826L55.7344 145.328C55.286 145.56 54.821 145.759 54.3395 145.925C53.7582 146.108 53.9243 146.756 53.9243 146.756C53.9243 146.756 55.2694 146.772 55.9669 145.826Z" fill="#968EBC"/>
<path d="M57.0633 155.54L55.7015 159.376C55.2698 160.589 54.755 161.801 54.6055 163.079C54.4395 164.408 54.4893 165.77 54.4395 167.098C54.4063 168.51 54.3565 169.921 54.3232 171.316C54.3232 171.383 54.3731 171.432 54.4395 171.432C54.5059 171.432 54.5557 171.383 54.5557 171.316C54.5889 169.988 54.6388 168.643 54.672 167.314C54.7052 165.969 54.6886 164.607 54.8214 163.279C54.9543 161.95 55.4857 160.688 55.934 159.426C56.3824 158.164 56.8474 156.869 57.2957 155.607C57.329 155.474 57.1131 155.407 57.0633 155.54Z" fill="#968EBC"/>
<path d="M15.5146 149.33V156.387C15.5146 156.935 15.963 157.384 16.511 157.384C16.6771 157.384 16.8431 157.334 16.976 157.267L26.4747 152.086C26.7902 151.904 26.9895 151.571 26.9895 151.206V143.833C26.9895 143.285 26.5411 142.837 25.9931 142.837C25.8105 142.837 25.6444 142.886 25.4949 142.97L15.9962 148.45C15.6973 148.649 15.5146 148.981 15.5146 149.33Z" fill="white"/>
<path d="M25.7031 148.38C25.809 147.971 25.6719 147.582 25.3967 147.511C25.1215 147.44 24.8125 147.713 24.7065 148.121C24.6006 148.529 24.7377 148.918 25.0129 148.99C25.2881 149.061 25.5971 148.788 25.7031 148.38Z" fill="#34323D"/>
<path d="M25.4453 148.317L25.3623 148.167L31.7889 144.879V147.055H31.6228V145.145L25.4453 148.317Z" fill="#34323D"/>
<path d="M30.7432 126.629V133.687C30.7432 134.235 31.1915 134.683 31.7395 134.683C31.9056 134.683 32.0716 134.633 32.2045 134.567L41.7032 129.386C42.0187 129.203 42.218 128.871 42.218 128.522V121.149C42.218 120.601 41.7696 120.153 41.2216 120.153C41.039 120.153 40.8729 120.202 40.7234 120.285L31.2247 125.765C30.9258 125.948 30.7265 126.28 30.7432 126.629Z" fill="#F6CDC1"/>
<path d="M41.3515 125.912C41.4575 125.503 41.3203 125.114 41.0451 125.043C40.7699 124.972 40.4609 125.245 40.355 125.653C40.249 126.061 40.3862 126.45 40.6614 126.522C40.9365 126.593 41.2455 126.32 41.3515 125.912Z" fill="#34323D"/>
<path d="M47.449 134.7H47.283V122.693L41.0889 125.865L41.0225 125.716L47.449 122.411V134.7Z" fill="#34323D"/>
<rect x="213.144" y="0.512939" width="102.408" height="64.2236" rx="11.8163" fill="#E1DBFE"/>
<path d="M265.227 55.1526L293.054 38.7091C293.935 38.213 294.704 37.3946 293.836 36.8613L265.909 20.765C265.487 20.5046 264.855 20.331 264.433 20.579L235.229 37.531C234.336 38.0394 234.188 39.4779 235.068 39.9987L261.556 55.1278C262.697 55.785 264.086 55.7974 265.227 55.1526Z" fill="#D4C2F6"/>
<path d="M285.986 32.2979L253.781 50.8868L241.913 43.9795L274.044 25.3906L285.986 32.2979Z" fill="#31333F"/>
<path d="M248.325 47.2533L249.292 47.8113L255.121 44.3639C255.121 44.3639 254.129 43.8554 254.042 43.8058C253.955 43.7562 248.325 47.2533 248.325 47.2533Z" fill="white"/>
<path d="M276.523 30.3633L277.491 30.9213L283.319 27.4739L282.24 26.9158C282.141 26.8786 276.523 30.3633 276.523 30.3633Z" fill="white"/>
<path d="M285.031 38.399V16.0775H285.577V38.399" fill="#31333F"/>
<path d="M285.254 30.7973C285.891 30.7973 286.407 30.5586 286.407 30.2641C286.407 29.9696 285.891 29.7308 285.254 29.7308C284.617 29.7308 284.101 29.9696 284.101 30.2641C284.101 30.5586 284.617 30.7973 285.254 30.7973Z" fill="#31333F"/>
<path d="M285.304 17.7889C286.66 17.7889 287.759 16.6896 287.759 15.3335C287.759 13.9775 286.66 12.8782 285.304 12.8782C283.948 12.8782 282.849 13.9775 282.849 15.3335C282.849 16.6896 283.948 17.7889 285.304 17.7889Z" fill="#FAFAE2"/>
<path d="M283.815 28.3296C283.815 28.3172 282.29 38.3991 282.29 38.3991C282.29 38.3991 282.947 39.3788 285.241 39.5152C287.536 39.6516 288.528 38.3867 288.528 38.0891C288.528 37.7914 286.655 28.3296 286.655 28.3296" fill="#31333F"/>
<path d="M240.313 34.6044C240.945 35.3237 240.288 35.8817 240.325 37.0226C240.325 37.1094 240.35 37.2086 240.375 37.2954C240.958 37.7419 241.652 38.0395 242.371 38.1511C242.396 37.2706 243.897 36.6258 243.835 35.5965C243.773 34.53 242.334 35.1129 242.855 33.9348C243.376 32.7567 243.19 31.2562 242.359 30.6982C241.739 30.2889 241.032 29.3837 240.71 28.9373C240.71 29.0613 240.71 29.1853 240.71 29.3217C240.772 30.0161 240.486 30.785 240.127 31.3306C239.792 31.8391 239.321 32.2607 239.06 32.8187C239.036 32.8807 239.011 32.9303 238.986 32.9923C238.763 33.91 239.767 33.9844 240.313 34.6044Z" fill="#C7F1C9"/>
<path d="M240.995 32.4838C241.132 33.0915 241.59 33.5503 241.826 34.1083C242.111 34.8028 241.801 35.46 241.69 36.1421C241.566 36.8737 241.851 37.4814 242.21 38.089L242.347 38.1138C242.148 37.8162 241.987 37.4938 241.863 37.1713C241.739 36.8117 241.727 36.4149 241.814 36.0429C241.938 35.4228 242.186 34.8152 241.975 34.1827C241.776 33.5999 241.318 33.1535 241.132 32.5582C240.921 31.839 241.33 31.1321 241.194 30.4129C241.119 30.0533 240.933 29.7308 240.747 29.4084L240.722 29.3712C240.722 29.4332 240.71 29.4952 240.71 29.5572C240.871 29.8052 240.983 30.0781 241.07 30.3633C241.231 31.0949 240.846 31.7894 240.995 32.4838Z" fill="#31333F"/>
<path d="M246.96 33.1163C247.629 32.8435 248.299 31.8762 247.815 31.2934C247.332 30.7106 247.456 29.8673 247.456 29.8673C247.344 30.1277 247.146 30.3509 246.873 30.4626C245.509 30.9338 245.385 31.7274 245.348 32.3351C245.311 32.9427 246.042 34.2448 243.86 34.9517C241.826 35.5965 243.264 37.9279 243.463 38.2503C243.909 38.2627 244.343 38.2379 244.79 38.1883C245.261 37.9403 245.757 37.717 246.265 37.531C247.567 37.0474 247.084 35.8941 246.513 35.2245C245.943 34.5548 246.278 33.3891 246.96 33.1163Z" fill="#C7F1C9"/>
<path d="M247.394 30.0285C247.046 30.5369 246.984 31.1446 246.811 31.715C246.625 32.3351 246.228 32.8187 245.906 33.3643C245.757 33.6123 245.645 33.8976 245.583 34.1828C245.521 34.4928 245.521 34.8152 245.484 35.1376C245.459 35.4973 245.36 35.8321 245.186 36.1421C245.013 36.4273 244.814 36.7001 244.591 36.9482C244.269 37.3326 243.946 37.7542 243.822 38.2379H243.934C244.07 37.7666 244.393 37.3574 244.703 36.9854C245.075 36.5265 245.434 36.0553 245.546 35.4601C245.67 34.8028 245.596 34.1456 245.93 33.5379C246.203 33.0295 246.6 32.5831 246.811 32.0374C247.059 31.3926 247.084 30.6609 247.481 30.0781C247.53 30.0161 247.431 29.9665 247.394 30.0285Z" fill="#31333F"/>
<path d="M243.314 38.2379C243.054 37.3947 243.265 36.3158 243.86 35.5841C244.53 34.7409 244.926 33.9596 244.468 33.0668C244.195 32.5211 244.058 31.9259 244.071 31.3182C243.401 32.6823 242.731 33.166 242.88 33.9224C243.029 34.6789 242.855 35.0013 242.384 36.1546C242.062 36.973 242.384 37.7791 242.607 38.1759C242.843 38.2131 243.079 38.2379 243.314 38.2379Z" fill="#C7F1C9"/>
<path d="M242.93 38.213L243.054 38.2254C242.781 37.4442 242.682 36.6257 243.079 35.8569C243.29 35.4477 243.562 35.088 243.761 34.6788C243.972 34.2324 243.984 33.8107 243.934 33.3271C243.86 32.6947 243.934 32.0498 244.133 31.4422C244.158 31.3802 244.046 31.343 244.034 31.4174C243.848 31.9382 243.773 32.4839 243.798 33.0419C243.81 33.3395 243.872 33.6247 243.86 33.9099C243.848 34.1828 243.773 34.4432 243.637 34.6788C243.426 35.1004 243.141 35.4849 242.93 35.9065C242.719 36.3653 242.645 36.8614 242.707 37.3574C242.756 37.6426 242.831 37.9402 242.93 38.213Z" fill="#31333F"/>
<path d="M269.939 44.6491C270.571 45.3684 269.914 45.9264 269.951 47.0673C269.951 47.1541 269.976 47.2533 270.001 47.3401C270.584 47.7865 271.278 48.0842 271.997 48.1958C272.01 47.3153 273.535 46.6705 273.461 45.6412C273.399 44.5747 271.96 45.1576 272.481 43.9795C273.002 42.8014 272.816 41.3009 271.985 40.7429C271.365 40.3336 270.658 39.4284 270.336 38.9819C270.336 39.1059 270.336 39.2299 270.336 39.3664C270.398 40.0608 270.112 40.8297 269.753 41.3753C269.418 41.8837 268.947 42.3054 268.686 42.8634C268.662 42.9254 268.637 42.975 268.612 43.037C268.376 43.9671 269.393 44.0291 269.939 44.6491Z" fill="#C7F1C9"/>
<path d="M270.608 42.541C270.745 43.1486 271.203 43.6074 271.439 44.1655C271.724 44.8599 271.414 45.5172 271.303 46.1992C271.179 46.9309 271.464 47.5385 271.811 48.1461L271.947 48.1709C271.749 47.8733 271.588 47.5509 271.464 47.2285C271.34 46.8689 271.327 46.472 271.414 46.1C271.538 45.48 271.786 44.8723 271.575 44.2399C271.377 43.657 270.918 43.2106 270.732 42.6154C270.521 41.8961 270.931 41.1893 270.794 40.47C270.72 40.1104 270.534 39.788 270.348 39.4655C270.348 39.4531 270.335 39.4407 270.323 39.4283C270.323 39.4903 270.311 39.5524 270.311 39.6144C270.472 39.8624 270.583 40.1352 270.67 40.4204C270.856 41.1397 270.459 41.8341 270.608 42.541Z" fill="#31333F"/>
<path d="M276.573 43.161C277.243 42.8882 277.912 41.9209 277.429 41.3381C276.945 40.7552 277.069 39.912 277.069 39.912C276.958 40.1724 276.759 40.3956 276.486 40.5072C275.122 40.9785 274.998 41.7721 274.973 42.3798C274.949 42.9874 275.668 44.3019 273.485 44.9963C271.452 45.6412 272.878 47.9725 273.088 48.295C273.535 48.3074 273.969 48.2826 274.403 48.2329C274.874 47.9849 275.37 47.7617 275.879 47.5757C277.181 47.0921 276.697 45.9388 276.127 45.2691C275.556 44.5995 275.903 43.4338 276.573 43.161Z" fill="#C7F1C9"/>
<path d="M277.007 40.0732C276.66 40.5817 276.598 41.1893 276.437 41.7598C276.251 42.3798 275.854 42.8634 275.532 43.4091C275.383 43.6571 275.271 43.9423 275.209 44.2275C275.147 44.5375 275.147 44.86 275.11 45.1824C275.085 45.542 274.986 45.8768 274.812 46.1869C274.639 46.4721 274.44 46.7449 274.217 46.9929C273.907 47.3773 273.572 47.799 273.448 48.2826H273.56C273.696 47.8114 274.019 47.4021 274.329 47.0301C274.701 46.5713 275.06 46.1001 275.172 45.5048C275.296 44.8476 275.222 44.1903 275.556 43.5827C275.829 43.0742 276.226 42.6278 276.437 42.0822C276.685 41.4373 276.71 40.7057 277.106 40.1228C277.144 40.0732 277.057 40.0112 277.007 40.0732Z" fill="#31333F"/>
<path d="M272.928 48.295C272.667 47.4518 272.878 46.3729 273.473 45.6413C274.143 44.798 274.54 44.0167 274.081 43.1239C273.808 42.5782 273.672 41.983 273.684 41.3754C273.014 42.7395 272.345 43.2355 272.494 43.9795C272.642 44.7236 272.469 45.0584 271.998 46.2117C271.675 47.0301 271.997 47.8362 272.221 48.233C272.456 48.2578 272.692 48.2826 272.928 48.295Z" fill="#C7F1C9"/>
<path d="M272.543 48.2702L272.667 48.2826C272.394 47.5137 272.294 46.6953 272.691 45.914C272.902 45.5048 273.175 45.1452 273.373 44.7359C273.584 44.2895 273.597 43.8679 273.547 43.3842C273.473 42.7518 273.547 42.107 273.745 41.4993C273.77 41.4373 273.671 41.4001 273.646 41.4745C273.473 41.9953 273.386 42.541 273.411 43.099C273.423 43.3966 273.485 43.6819 273.473 43.9671C273.46 44.2399 273.386 44.5003 273.262 44.7359C273.051 45.1576 272.766 45.542 272.555 45.9636C272.344 46.4224 272.27 46.9185 272.332 47.4145C272.369 47.6997 272.443 47.985 272.543 48.2702Z" fill="#31333F"/>
<path d="M277.54 39.416C278.173 40.1352 277.516 40.6933 277.553 41.8341C277.553 41.9209 277.578 42.0201 277.602 42.1069C278.185 42.5534 278.88 42.851 279.599 42.9626C279.611 42.0821 281.137 41.4373 281.062 40.408C281 39.3416 279.562 39.9244 280.083 38.7463C280.603 37.5682 280.417 36.0677 279.587 35.5097C278.966 35.1005 278.26 34.1952 277.937 33.7488C277.937 33.8728 277.937 33.9968 277.937 34.1332C277.999 34.8277 277.714 35.5841 277.354 36.1421C277.02 36.6506 276.548 37.0722 276.288 37.6302C276.263 37.6922 276.238 37.7419 276.213 37.8039C275.99 38.7215 276.995 38.7959 277.54 39.416Z" fill="#C7F1C9"/>
<path d="M278.223 37.2954C278.359 37.903 278.818 38.3619 279.054 38.9199C279.339 39.6144 279.029 40.2716 278.917 40.9661C278.793 41.6977 279.078 42.3053 279.438 42.913L279.574 42.9378C279.376 42.6402 279.215 42.3301 279.091 41.9953C278.967 41.6357 278.954 41.2389 279.041 40.8668C279.165 40.2468 279.413 39.6392 279.202 39.0067C279.004 38.4239 278.533 37.9774 278.359 37.3822C278.148 36.663 278.558 35.9561 278.421 35.2369C278.347 34.8772 278.161 34.5548 277.975 34.2324L277.95 34.1952C277.95 34.2572 277.938 34.3192 277.938 34.3812C278.099 34.6292 278.21 34.902 278.297 35.1873C278.458 35.9065 278.062 36.601 278.223 37.2954Z" fill="#31333F"/>
<path d="M284.175 37.9279C284.844 37.655 285.514 36.6878 285.03 36.1049C284.547 35.5221 284.671 34.6788 284.671 34.6788C284.559 34.9393 284.361 35.1625 284.088 35.2741C282.724 35.7453 282.6 36.539 282.562 37.1466C282.525 37.7542 283.257 39.0563 281.074 39.7632C279.041 40.408 280.467 42.7394 280.69 43.0618C281.136 43.0742 281.57 43.0494 282.004 42.9998C282.476 42.7518 282.972 42.5286 283.48 42.3426C284.782 41.8589 284.299 40.7056 283.728 40.036C283.158 39.3664 283.505 38.2007 284.175 37.9279Z" fill="#C7F1C9"/>
<path d="M284.621 34.8401C284.273 35.3485 284.211 35.9562 284.05 36.5266C283.864 37.1466 283.467 37.6303 283.145 38.1759C282.996 38.4239 282.884 38.7092 282.822 38.9944C282.76 39.3044 282.76 39.6268 282.723 39.9492C282.698 40.3089 282.599 40.6437 282.426 40.9537C282.252 41.2389 282.054 41.5117 281.83 41.7598C281.52 42.1442 281.186 42.5658 281.062 43.0495H281.173C281.31 42.5782 281.632 42.169 281.942 41.7846C282.314 41.3257 282.674 40.8545 282.785 40.2593C282.909 39.602 282.835 38.9448 283.17 38.3371C283.442 37.8287 283.839 37.3823 284.05 36.8366C284.298 36.1918 284.323 35.4601 284.72 34.8773C284.757 34.8277 284.658 34.7781 284.621 34.8401Z" fill="#31333F"/>
<path d="M280.541 43.0494C280.28 42.2062 280.491 41.1397 281.086 40.3956C281.756 39.5524 282.153 38.7711 281.694 37.8783C281.421 37.3326 281.285 36.7374 281.297 36.1298C280.628 37.4939 279.958 37.9899 280.107 38.7339C280.256 39.478 280.082 39.8128 279.611 40.9661C279.288 41.7845 279.611 42.5782 279.834 42.9874C280.07 43.0246 280.305 43.0494 280.541 43.0494Z" fill="#C7F1C9"/>
<path d="M280.157 43.0246L280.281 43.037C280.008 42.2557 279.909 41.4497 280.306 40.6684C280.516 40.2592 280.789 39.8995 280.988 39.4903C281.198 39.0439 281.211 38.6223 281.161 38.1386C281.087 37.5062 281.161 36.8613 281.36 36.2537C281.384 36.1917 281.285 36.1545 281.26 36.2289C281.074 36.7497 281 37.3078 281.025 37.8534C281.037 38.151 281.099 38.4363 281.087 38.7215C281.074 38.9943 281 39.2547 280.876 39.4903C280.665 39.9119 280.38 40.2964 280.169 40.718C279.958 41.1768 279.884 41.6729 279.946 42.1689C279.983 42.4665 280.058 42.7517 280.157 43.0246Z" fill="#31333F"/>
<path d="M264.967 37.9651L265.934 38.5231L271.762 35.0757L270.684 34.5176C270.572 34.4804 264.967 37.9651 264.967 37.9651Z" fill="white"/>
<path d="M270.485 15.7179C270.485 15.7179 272.693 19.2025 274.119 19.525C274.119 19.525 273.139 21.6331 270.398 21.2239C267.658 20.8146 268.451 15.9907 268.848 15.7551" fill="#FFE427"/>
<path d="M265.487 12.4565C265.438 12.1836 265.363 11.9108 265.264 11.638C265.152 11.4148 264.532 10.9684 264.582 10.8072C264.632 10.6459 265.252 11.0552 265.252 11.0552C265.252 11.0552 264.818 10.1003 264.917 9.9887C265.041 9.83989 265.425 10.7824 265.413 10.7203C265.4 10.6583 265.202 9.82749 265.351 9.64147C265.5 9.45546 265.698 10.5963 265.698 10.5963C265.698 10.5963 265.748 9.86469 265.884 9.76548C266.02 9.66628 265.971 10.7451 265.971 10.7451C265.971 10.7451 266.157 10.2491 266.281 10.2491C266.405 10.2491 266.095 11.2164 266.095 11.2164L266.38 12.4317" fill="#FCD1C0"/>
<path d="M276.275 16.1518C276.523 16.0278 276.771 15.879 276.995 15.7178C277.181 15.5442 277.441 14.825 277.602 14.825C277.763 14.825 277.54 15.5442 277.54 15.5442C277.54 15.5442 278.346 14.8622 278.47 14.9242C278.644 14.9986 277.85 15.631 277.912 15.6062C277.974 15.5814 278.718 15.1474 278.929 15.2466C279.14 15.3458 278.111 15.8418 278.111 15.8418C278.111 15.8418 278.83 15.693 278.954 15.8046C279.078 15.9162 278.036 16.1518 278.036 16.1518C278.036 16.1518 278.57 16.2014 278.594 16.3131C278.619 16.4247 277.615 16.3999 277.615 16.3999L276.523 17.0075" fill="#FCD1C0"/>
<path d="M268.823 17.2059C268.823 17.2059 266.554 11.0551 266.232 11.2535C265.909 11.4519 265.512 11.2039 265.277 11.8487C265.116 12.2827 267.1 19.7729 268.005 19.8969C269.902 20.1573 270.398 20.5541 270.398 20.5541" fill="#B28BFB"/>
<path d="M267.632 31.9753L249.391 43.1857L255.765 46.906L273.027 36.8489C273.423 36.6257 273.547 36.1172 273.324 35.7204C273.262 35.6088 273.163 35.5096 273.051 35.4352L267.632 31.9753Z" fill="url(#paint10_linear_605_3695)"/>
<path d="M267.286 33.3767C267.286 33.3767 266.504 35.2492 267.434 36.0925C267.893 36.3777 268.377 36.6381 268.873 36.8365C268.873 36.8365 267.893 36.2661 268.104 35.15C268.315 34.0339 269.071 33.0667 269.071 33.0667" fill="#3E4359"/>
<path d="M271.74 34.9902C272.491 33.5359 272.365 31.9774 271.458 31.5092C270.551 31.041 269.207 31.8404 268.456 33.2948C267.705 34.7491 267.832 36.3076 268.738 36.7758C269.645 37.244 270.989 36.4446 271.74 34.9902Z" fill="#1E2128"/>
<path d="M270.916 34.8593C271.29 34.1351 271.228 33.3596 270.778 33.1271C270.328 32.8945 269.659 33.2931 269.285 34.0172C268.912 34.7413 268.973 35.5169 269.424 35.7494C269.874 35.9819 270.542 35.5834 270.916 34.8593Z" fill="white"/>
<path d="M258.122 27.7839C258.122 27.7839 257.7 28.3792 257.576 28.8504C257.576 28.8504 256.063 28.5776 255.431 30.1897C254.798 31.8018 254.749 34.4184 255.654 36.3157L256.125 35.7081C256.125 35.7081 257.514 36.2041 257.725 36.6505C257.936 37.097 258.295 39.7507 258.295 39.7507C258.295 39.7507 260.317 41.2264 262.586 40.8668C264.855 40.5072 267.187 36.7497 267.398 36.6009C267.608 36.4521 273.362 33.1039 273.809 32.6451C274.912 31.5166 273.685 29.4953 272.581 28.8504C270.895 27.8459 268.898 28.156 267.063 28.4164C265.798 28.6024 263.95 28.7884 262.995 29.7557C262.933 29.8177 262.871 29.8921 262.822 29.9789C262.164 31.033 261.718 32.2234 261.52 33.4511L260.428 34.0092C260.428 34.0092 261.309 31.777 259.659 29.8797L260.403 28.7264" fill="white"/>
<path opacity="0.56" d="M266.727 36.3157L265.859 35.7825C265.859 35.7825 264.272 36.0305 263.379 35.2864C262.486 34.5424 262.61 33.9719 262.61 33.9719L261.519 33.4635L260.428 34.0215C260.229 35.3732 260.155 36.8985 260.539 38.2254C260.713 38.8331 261.023 39.4407 261.606 39.7011C262.337 40.0359 263.243 39.7135 263.85 39.2795C264.979 38.4734 265.822 37.3574 266.727 36.3157Z" fill="#31333F"/>
<path d="M253.62 41.0404C253.62 41.0404 252.838 42.9129 253.768 43.7562C254.19 44.091 254.686 44.339 255.207 44.5002C255.207 44.5002 254.24 43.9422 254.45 42.8137C254.661 41.6852 255.418 40.7303 255.418 40.7303" fill="#3E4359"/>
<path d="M258.066 42.6583C258.817 41.204 258.691 39.6454 257.784 39.1773C256.877 38.7091 255.534 39.5085 254.783 40.9629C254.032 42.4172 254.158 43.9757 255.065 44.4439C255.971 44.9121 257.315 44.1127 258.066 42.6583Z" fill="#1E2128"/>
<path d="M257.242 42.5284C257.616 41.8043 257.554 41.0288 257.104 40.7963C256.654 40.5637 255.986 40.9623 255.612 41.6864C255.238 42.4105 255.3 43.1861 255.75 43.4186C256.2 43.6511 256.868 43.2526 257.242 42.5284Z" fill="white"/>
<path opacity="0.33" d="M267.397 36.6009C267.397 36.6009 267.211 33.4511 270.385 31.4546C274.13 29.086 274.577 32.1738 273.808 32.6575C271.042 34.3936 267.397 36.6009 267.397 36.6009Z" fill="#31333F"/>
<path d="M261.172 33.9967C261.172 33.9967 260.688 34.4803 260.353 34.6539C260.018 34.8275 259.659 35.3856 259.832 35.9064C260.006 36.4272 262.102 35.3112 262.511 34.9515C262.511 34.9515 262.585 33.9967 262.412 33.7115C262.238 33.4262 261.172 33.9967 261.172 33.9967Z" fill="#1E2128"/>
<path d="M263.876 36.2041C263.876 36.2041 262.586 38.1262 263.156 38.8826C263.727 39.6391 264.917 37.4069 264.967 37.1589C265.016 36.9109 264.967 36.0428 264.967 36.0428L263.876 36.2041Z" fill="#1E2128"/>
<path d="M267.112 26.0106C267.112 26.0106 267.98 25.2666 269.22 25.9362C270.46 26.6059 270.795 26.6679 270.857 27.6103C270.919 28.5528 270.807 28.9248 270.224 29.3217C269.641 29.7185 268.798 29.9789 267.384 31.0578C267.384 31.0578 266.306 31.7646 265.81 31.3802" fill="#31333F"/>
<path d="M270.721 26.9655C270.212 27.6971 269.357 28.1311 268.575 28.528C267.794 28.9248 267.013 29.396 266.207 29.7804L265.822 31.3802C266.318 31.7522 267.397 31.0577 267.397 31.0577C268.798 29.9789 269.642 29.7184 270.237 29.3216C270.832 28.9248 270.944 28.5528 270.869 27.6103C270.857 27.3871 270.807 27.1639 270.721 26.9655Z" fill="#1E2128"/>
<path d="M260.44 22.402C260.18 22.712 259.895 22.9972 259.597 23.2576C259.188 23.5925 257.303 24.9193 257.303 24.9193C257.303 24.9193 258.109 25.7502 258.233 25.6634C258.357 25.5766 260.267 24.5721 260.837 24.0389C261.259 23.6421 261.581 23.3568 261.779 23.1212C261.321 22.8484 260.911 22.6748 260.44 22.402Z" fill="#FCD1C0"/>
<path d="M262.127 28.9L256.832 25.5642C256.832 25.5642 256.385 25.4278 256.224 25.7874C256.063 26.147 256.224 26.3083 256.224 26.3083L262.772 30.2517C262.772 30.2517 263.305 30.1525 263.243 29.5201L262.127 28.9Z" fill="#1E2128"/>
<path d="M257.848 24.4977C257.675 24.6465 257.489 24.7829 257.303 24.9069C257.092 25.0061 256.348 25.1797 256.248 25.4401C256.149 25.7006 255.963 26.085 256.248 26.4942C256.534 26.9034 257.079 26.9282 257.203 26.7794C257.327 26.6306 257.241 26.4198 257.365 26.3082C257.489 26.1966 257.873 26.2462 258.121 26.0354C258.171 25.8866 258.233 25.7254 258.307 25.589C258.344 25.527 258.543 25.4153 258.902 25.1425C258.518 24.9565 258.22 24.7333 257.848 24.4977Z" fill="#FCD1C0"/>
<path d="M266.753 33.6867C266.753 33.6867 265.463 35.5965 266.033 36.3653C266.604 37.1342 267.794 34.8896 267.844 34.6416C267.893 34.3936 267.844 33.5255 267.844 33.5255L266.753 33.6867Z" fill="#1E2128"/>
<path d="M266.665 23.4064C266.578 23.4684 262.25 25.5145 261.829 26.4942C261.407 27.4738 263.776 31.2561 263.776 31.2561C263.776 31.2561 264.681 31.9506 265.462 30.9833C265.462 30.9833 264.916 28.2427 264.681 27.8211L266.665 26.953C266.417 27.7591 266.268 28.6023 266.219 29.4456C266.156 30.7105 266.665 33.6743 266.665 33.6743C266.665 33.6743 267.533 34.1207 268.017 33.6743C268.5 33.2278 269.071 28.1559 269.071 28.1559C269.071 28.1559 270.608 27.1638 270.881 26.2338C271.241 24.9937 270.298 23.5552 270.298 23.5552L266.665 23.4064Z" fill="#C45E31"/>
<path d="M263.875 25.9362C263.788 25.9982 259.46 28.0319 259.038 29.024C258.617 30.016 260.998 33.7859 260.998 33.7859C260.998 33.7859 261.903 34.4803 262.684 33.5131C262.684 33.5131 262.139 30.7725 261.903 30.3509L263.887 29.4828C263.639 30.2889 263.49 31.1321 263.441 31.9754C263.379 33.2403 263.887 36.2041 263.887 36.2041C263.887 36.2041 264.755 36.6505 265.239 36.2041C265.722 35.7576 266.293 30.6857 266.293 30.6857C266.293 30.6857 267.756 29.2224 268.017 28.2923C268.227 27.5731 268.227 26.8166 268.004 26.0974L263.875 25.9362Z" fill="#1E2128"/>
<path d="M271.738 18.7312C271.638 18.446 271.465 18.1856 271.254 17.9748C270.423 17.1563 268.005 17.0075 268.005 17.0075L267.943 16.9951C267.931 17.0447 267.931 17.0943 267.906 17.1315C267.05 18.1112 266.554 20.5542 266.678 23.4064C267.819 23.4932 270.249 23.9272 270.56 23.8528C270.622 22.1043 271.105 20.3681 271.738 18.7312Z" fill="#B28BFB"/>
<path d="M277.156 15.6931C277.107 15.6063 277.069 15.5195 277.02 15.4203C275.581 15.6807 271.973 16.2759 268.885 18.5949L270.398 20.5542C270.398 20.5542 273.485 18.1733 277.627 16.9456C277.516 16.524 277.355 16.1023 277.156 15.6931Z" fill="#B28BFB"/>
<path d="M270.15 16.6852L270.076 17.5904C270.076 17.5904 269.754 17.8012 268.836 17.4416L268.948 16.4991L270.15 16.6852Z" fill="#FCD1C0"/>
<path opacity="0.3" d="M270.15 16.6852L270.076 17.5904C270.076 17.5904 269.754 17.8012 268.836 17.4416L268.948 16.4991L270.15 16.6852Z" fill="#C45E31"/>
<path d="M268.451 15.2218C268.352 15.2466 267.868 17.2679 268.674 17.3671C269.48 17.4663 270.361 16.6975 270.472 16.5115C270.584 16.3254 270.138 14.6885 268.451 15.2218Z" fill="#FCD1C0"/>
<path d="M268.303 14.5646C268.303 14.5646 267.323 15.2218 267.745 15.6682C268.439 16.4123 269.494 16.2511 270.151 15.9411" fill="white"/>
<path d="M269.741 13.6966C269.468 13.647 269.195 13.6718 268.935 13.771C268.736 13.8454 268.563 13.9694 268.426 14.1306C268.228 14.3538 268.166 14.6142 268.03 14.8746C268.03 14.8746 267.819 15.2839 268.848 15.7551C269.877 16.2263 269.567 16.2511 269.691 16.648C269.815 17.0448 270.224 17.082 270.621 16.8464C271.13 16.5239 271.465 16.0031 271.551 15.4203C271.626 14.825 271.266 14.3414 270.758 14.0562C270.423 13.8702 270.088 13.7586 269.741 13.6966Z" fill="white"/>
<path opacity="0.73" d="M269.741 13.6966C269.468 13.647 269.195 13.6718 268.935 13.771C268.736 13.8454 268.563 13.9694 268.426 14.1306C268.228 14.3538 268.166 14.6142 268.03 14.8746C268.03 14.8746 267.819 15.2839 268.848 15.7551C269.877 16.2263 269.567 16.2511 269.691 16.648C269.815 17.0448 270.224 17.082 270.621 16.8464C271.13 16.5239 271.465 16.0031 271.551 15.4203C271.626 14.825 271.266 14.3414 270.758 14.0562C270.423 13.8702 270.088 13.7586 269.741 13.6966Z" fill="#31333F"/>
<path d="M263.281 19.2521C263.281 19.2521 262.673 19.3265 262.301 19.5373C261.768 19.8473 260.788 20.9262 260.329 22.3399L261.892 23.1832L262.685 22.0671C262.685 22.0671 263.566 25.6013 263.814 25.9982C264.062 26.395 267.584 26.209 268.005 26.1098C268.005 26.1098 268.241 21.5339 266.43 19.7481C265.587 18.9173 263.281 19.2521 263.281 19.2521Z" fill="#B28BFB"/>
<path opacity="0.5" d="M263.281 19.2521C263.281 19.2521 262.673 19.3265 262.301 19.5373C261.768 19.8473 260.788 20.9262 260.329 22.3399L261.892 23.1832L262.685 22.0671C262.685 22.0671 263.566 25.6013 263.814 25.9982C264.062 26.395 267.584 26.209 268.005 26.1098C268.005 26.1098 268.241 21.5339 266.43 19.7481C265.587 18.9173 263.281 19.2521 263.281 19.2521Z" fill="#C45E31"/>
<path d="M265.202 23.0592C265.227 23.1584 264.83 25.1921 264.545 25.775C264.26 26.3578 262.71 27.9079 262.499 28.0071C262.288 28.1063 261.544 28.28 261.445 28.5404C261.346 28.8008 261.16 29.1852 261.445 29.5944C261.73 30.0037 262.276 30.0285 262.4 29.8797C262.524 29.7309 262.437 29.52 262.561 29.4084C262.685 29.2968 263.069 29.3464 263.317 29.1356C263.367 28.9868 263.429 28.8256 263.503 28.6892C263.59 28.5528 264.495 28.1311 266.157 26.333C266.157 26.333 266.926 24.7085 267.087 23.27L265.202 23.0592Z" fill="#FCD1C0"/>
<path d="M265.065 18.6321L265.313 19.5001C265.313 19.5001 265.078 19.8102 264.098 19.7854L263.875 18.8677L265.065 18.6321Z" fill="#FCD1C0"/>
<path opacity="0.3" d="M265.065 18.6321L265.313 19.5001C265.313 19.5001 265.078 19.8102 264.098 19.7854L263.875 18.8677L265.065 18.6321Z" fill="#C45E31"/>
<path d="M262.97 17.8385C262.896 17.9005 263.131 19.9715 263.913 19.773C264.694 19.5746 265.264 18.5702 265.314 18.3594C265.363 18.1485 264.371 16.7596 262.97 17.8385Z" fill="#FCD1C0"/>
<path d="M262.598 17.2679C262.598 17.2679 261.904 18.2228 262.449 18.4956C263.367 18.9545 264.297 18.446 264.806 17.9252" fill="white"/>
<path d="M263.652 15.9659C263.379 16.0155 263.131 16.1395 262.92 16.3131C262.759 16.4495 262.648 16.6355 262.573 16.8215C262.462 17.1068 262.499 17.3672 262.462 17.6524C262.462 17.6524 262.4 18.1112 263.528 18.198C264.656 18.2848 264.371 18.4213 264.619 18.7561C264.867 19.0909 265.277 18.9793 265.549 18.6197C265.909 18.1484 266.045 17.5408 265.921 16.958C265.785 16.3751 265.277 16.0403 264.718 15.9535C264.359 15.8915 263.999 15.9039 263.652 15.9659Z" fill="white"/>
<path opacity="0.33" d="M263.652 15.9659C263.379 16.0155 263.131 16.1395 262.92 16.3131C262.759 16.4495 262.648 16.6355 262.573 16.8215C262.462 17.1068 262.499 17.3672 262.462 17.6524C262.462 17.6524 262.4 18.1112 263.528 18.198C264.656 18.2848 264.371 18.4213 264.619 18.7561C264.867 19.0909 265.277 18.9793 265.549 18.6197C265.909 18.1484 266.045 17.5408 265.921 16.958C265.785 16.3751 265.277 16.0403 264.718 15.9535C264.359 15.8915 263.999 15.9039 263.652 15.9659Z" fill="#31333F"/>
<path d="M262.574 39.5896C261.16 38.3619 260.329 35.7702 260.515 33.9472L260.403 33.9968C260.403 33.9968 261.284 31.7647 259.635 29.8673L260.379 28.7141L258.122 27.7716C258.122 27.7716 257.7 28.3668 257.576 28.8381C257.576 28.8381 256.063 28.5653 255.431 30.1774C254.798 31.7895 254.749 34.4061 255.654 36.3034L256.125 35.6957C256.125 35.6957 257.514 36.1918 257.725 36.6382C257.936 37.0846 258.295 39.7384 258.295 39.7384C258.295 39.7384 260.317 41.2141 262.586 40.8545C262.983 40.7801 263.367 40.6313 263.715 40.4205C263.318 40.1972 262.933 39.912 262.574 39.5896Z" fill="white"/>
<path d="M258.009 36.4645C258.009 36.4645 257.253 35.8072 256.372 35.5716C255.492 35.336 253.099 39.8127 253.099 40.4079C253.099 41.0032 253.582 41.7224 254.798 41.4992C254.798 41.4992 256.211 40.9536 257.265 40.2219C257.861 39.7879 258.592 39.5771 259.324 39.6143L258.009 36.4645Z" fill="white"/>
<path opacity="0.33" d="M258.009 36.4645L257.947 36.4149C257.191 37.2086 256.534 38.089 255.975 39.0315C255.554 39.7755 255.306 40.5568 255.107 41.3753C255.864 41.0528 256.583 40.6684 257.265 40.222C257.86 39.7879 258.592 39.5771 259.324 39.6143L258.009 36.4645Z" fill="#31333F"/>
<path d="M257.651 35.0291C258.159 34.8248 258.354 34.1182 258.085 33.451C257.817 32.7838 257.188 32.4086 256.679 32.613C256.171 32.8174 255.976 33.5239 256.244 34.1911C256.513 34.8583 257.142 35.2335 257.651 35.0291Z" fill="#31333F"/>
<path d="M257.421 34.7106C257.777 34.5676 257.912 34.0704 257.723 33.6002C257.534 33.13 257.092 32.8648 256.736 33.0078C256.38 33.1509 256.245 33.648 256.434 34.1183C256.623 34.5885 257.065 34.8537 257.421 34.7106Z" fill="white"/>
<path d="M258.394 26.2338C258.047 26.2586 257.749 26.4942 257.613 26.8166C257.377 27.3746 257.526 27.4987 257.749 27.7095C257.972 27.9203 260.366 29.2472 260.366 29.2472C260.366 29.2472 260.8 29.4952 261.196 28.9496C261.593 28.4039 261.358 27.8583 261.11 27.7715C260.862 27.6847 258.394 26.2338 258.394 26.2338Z" fill="white"/>
<path opacity="0.33" d="M258.394 26.2338C258.047 26.2586 257.749 26.4942 257.613 26.8166C257.377 27.3746 257.526 27.4987 257.749 27.7095C257.972 27.9203 260.366 29.2472 260.366 29.2472C260.366 29.2472 260.8 29.4952 261.196 28.9496C261.593 28.4039 261.358 27.8583 261.11 27.7715C260.862 27.6847 258.394 26.2338 258.394 26.2338Z" fill="#31333F"/>
<defs>
<linearGradient id="paint0_linear_605_3695" x1="39.188" y1="79.4707" x2="43.1843" y2="72.9862" gradientUnits="userSpaceOnUse">
<stop stop-color="#8383EA"/>
<stop offset="1" stop-color="#7F3CDD"/>
</linearGradient>
<linearGradient id="paint1_linear_605_3695" x1="52.7001" y1="8.31946" x2="51.2496" y2="49.9282" gradientUnits="userSpaceOnUse">
<stop stop-color="#FFEED9" stop-opacity="0"/>
<stop offset="1" stop-color="#E768FD" stop-opacity="0.6"/>
</linearGradient>
<linearGradient id="paint2_linear_605_3695" x1="33.7772" y1="72.0905" x2="48.571" y2="54.3253" gradientUnits="userSpaceOnUse">
<stop offset="0.01" stop-color="white" stop-opacity="0"/>
<stop offset="1" stop-color="#006D9D"/>
</linearGradient>
<linearGradient id="paint3_linear_605_3695" x1="263.059" y1="145.003" x2="272.041" y2="137.596" gradientUnits="userSpaceOnUse">
<stop stop-color="#631919" stop-opacity="0"/>
<stop offset="1" stop-color="#631919"/>
</linearGradient>
<linearGradient id="paint4_linear_605_3695" x1="153.891" y1="22.4397" x2="148.592" y2="27.4782" gradientUnits="userSpaceOnUse">
<stop stop-color="#00A99D"/>
<stop offset="1" stop-color="#96CF40" stop-opacity="0"/>
</linearGradient>
<linearGradient id="paint5_linear_605_3695" x1="184.196" y1="38.7325" x2="178.795" y2="43.8667" gradientUnits="userSpaceOnUse">
<stop stop-color="#00A99D"/>
<stop offset="1" stop-color="#96CF40" stop-opacity="0"/>
</linearGradient>
<linearGradient id="paint6_linear_605_3695" x1="164.356" y1="41.5683" x2="157.909" y2="47.6986" gradientUnits="userSpaceOnUse">
<stop stop-color="#00A99D" stop-opacity="0.6"/>
<stop offset="1" stop-color="#96CF40" stop-opacity="0"/>
</linearGradient>
<linearGradient id="paint7_linear_605_3695" x1="130.056" y1="35.5143" x2="125.94" y2="39.4279" gradientUnits="userSpaceOnUse">
<stop stop-color="#00A99D" stop-opacity="0.1"/>
<stop offset="1" stop-color="#96CF40" stop-opacity="0"/>
</linearGradient>
<linearGradient id="paint8_linear_605_3695" x1="73.6322" y1="162.621" x2="77.6077" y2="159.599" gradientUnits="userSpaceOnUse">
<stop stop-color="#ACF4E6" stop-opacity="0.1"/>
<stop offset="1" stop-color="#155DFC" stop-opacity="0.3"/>
</linearGradient>
<linearGradient id="paint9_linear_605_3695" x1="45.648" y1="178.88" x2="53.3632" y2="171.165" gradientUnits="userSpaceOnUse">
<stop stop-color="#ACF4E6" stop-opacity="0.1"/>
<stop offset="0.9" stop-color="#155DFC" stop-opacity="0.4"/>
</linearGradient>
<linearGradient id="paint10_linear_605_3695" x1="269.597" y1="34.9158" x2="252.187" y2="44.8787" gradientUnits="userSpaceOnUse">
<stop stop-color="#31333F"/>
<stop offset="0.99" stop-color="#31333F"/>
</linearGradient>
</defs>
</svg>
